<svg width="175" height="84" viewBox="0 0 175 84" fill="none" xmlns="http://www.w3.org/2000/svg">
<mask id="mask0_93_754" style="mask-type:alpha" maskUnits="userSpaceOnUse" x="15" y="13" width="55" height="61">
<path d="M61.5875 33.481C62.0305 33.8516 62.8969 34.7729 63.14 35.2809C63.3767 35.7753 63.257 36.265 63.8779 36.4819C64.8047 36.8057 66.3426 36.4223 67.2875 36.1772C67.5898 36.0988 69.367 35.4704 69.4513 35.5535C69.2688 37.4235 68.3544 39.322 67.2551 40.8305C65.4607 43.2929 62.958 44.213 61.1793 46.6307C60.753 47.2102 59.5441 49.1622 59.727 49.836C59.8171 50.1682 60.129 50.1548 60.1649 50.3803C60.1992 50.5954 60.0062 50.9079 59.9934 51.1853C59.9734 51.6201 60.1954 52.3237 60.4486 52.6757C60.5851 52.8654 60.9192 53.0527 60.9726 53.1409C61.0962 53.345 60.9537 54.2328 60.965 54.5828C61.0018 55.7157 61.4861 56.6588 60.6785 57.6827C60.1804 58.3141 59.5667 58.3911 58.9242 58.756C58.2627 59.1317 56.4675 60.4541 56.5279 61.2756C56.5457 61.5189 56.7507 61.9171 56.8086 62.2131C56.9835 63.1072 57.3124 64.3578 56.3907 64.9478C56.051 65.1652 55.1041 65.3723 54.9176 65.6555C54.7009 65.9848 54.9436 66.1101 54.9856 66.3789C55.1 67.1107 54.5676 68.1097 54.1683 68.7038C53.1031 70.2884 51.4585 72.5159 49.5981 73.1819C48.695 73.5051 47.9494 73.2814 47.042 73.3726C46.4213 73.435 45.1344 74.002 44.6947 73.9261C44.301 73.8582 43.4643 72.7586 43.3898 72.3936C43.3553 72.2253 43.5105 72.029 43.5243 71.7895C43.5731 70.9455 42.9894 70.6478 42.6408 69.9986C42.3721 69.498 42.2472 68.8364 41.9999 68.3775C41.5903 67.6177 41.2678 67.3489 40.9924 66.3958C40.6442 65.1909 40.7332 63.447 40.3006 62.4826C39.2486 60.1369 37.651 59.097 38.7933 56.1564C39.1204 55.3142 39.8679 54.7733 39.9624 53.8515C40.2324 51.2158 37.9984 48.5379 36.5841 46.5676C35.8297 45.5165 36.351 45.2809 36.628 44.2157C36.9469 42.9895 37.1796 41.3575 35.4694 41.2192C34.8912 41.1724 34.161 41.5483 33.7247 41.3491C33.3771 41.1905 33.3326 40.7675 33.1316 40.487C32.2392 39.2427 30.3435 39.8099 29.164 40.3063C28.4473 40.6081 28.0731 40.9972 27.2253 41.0167C26.4536 41.0345 25.5273 40.6658 24.8159 40.7229C24.2185 40.7708 23.6904 41.2863 23.0378 41.2959C22.2535 41.3074 20.5445 40.1632 19.9268 39.6346C18.7682 38.6428 18.2931 36.9336 17.2221 35.7954C16.8319 35.3807 16.465 35.4074 16.214 35.1878C15.9899 34.9918 16.084 34.6756 16.0132 34.4191C15.9304 34.1187 15.5607 33.3507 15.5605 33.1707C15.5603 32.8676 15.8474 32.6157 15.9513 32.3449C16.3229 31.3766 16.5674 29.9439 16.238 28.9431C16.1514 28.68 15.8751 28.4524 15.8245 28.2254C15.6003 27.2214 16.3095 26.1088 16.7925 25.2688C17.1506 24.6461 18.4429 22.4988 18.8754 22.1005C19.071 21.9203 19.755 21.7403 20.0823 21.53C20.5098 21.2552 21.3862 20.3301 21.4387 19.8306C21.4579 19.6481 21.3205 19.397 21.3181 19.1945C21.311 18.6014 21.8342 17.4027 22.3881 17.1304C22.6171 17.0179 22.8524 17.0215 23.0705 16.9241C23.9629 16.5253 24.1998 14.951 24.4527 14.8288C24.7005 14.7091 25.8297 15.2487 26.2128 15.3327C27.7911 15.6787 27.8029 14.9943 29.0008 14.4525C29.9285 14.033 31.5508 13.7102 32.5677 13.6569C33.5972 13.6029 34.4624 13.8195 35.5382 13.6381C36.3613 13.4993 36.8043 12.9822 37.4451 13.7953C37.8397 14.2958 37.9777 14.8935 37.7164 15.4931C37.5142 15.9571 36.5 16.5819 37.3778 17.0132C38.4103 17.5205 39.5982 17.228 40.4665 17.6408C41.126 17.9542 41.2063 18.7794 41.9381 19.0775C42.1074 19.1464 42.3044 19.1278 42.4607 19.2013C43.0071 19.4585 43.9687 20.2486 44.5645 19.6754C45.0816 19.1777 44.4331 18.1182 45.4814 17.6838C46.4412 17.286 46.7935 17.7589 47.5586 18.062C47.97 18.225 48.3864 18.3747 48.8082 18.5089C49.6841 18.7877 51.7022 19.4614 52.5162 19.3862C53.4204 19.3027 54.4696 18.699 55.3712 19.0553C55.9975 19.3028 56.5588 20.1366 56.5299 20.8114C56.5008 21.4923 55.6866 22.3513 55.8325 22.9513C56.5389 24.4424 57.8116 25.8375 58.185 27.471C58.3658 28.2618 58.2598 28.9788 58.7871 29.6966C59.0085 29.998 59.4117 30.2293 59.6116 30.5686C59.922 31.0957 59.9314 31.9058 60.2528 32.4319C60.5236 32.8751 61.1894 33.148 61.5874 33.481H61.5875Z" fill="black"/>
</mask>
<g mask="url(#mask0_93_754)">
<path d="M59.2507 84.6075L-3.84795 45.6256L-2.95487 44.18L60.1438 83.1619L59.2507 84.6075ZM61.292 81.3034L-1.8067 42.3215L-0.914132 40.8767L62.1845 79.8587L61.292 81.3034ZM63.3327 78.0001L0.234042 39.0182L1.12661 37.5734L64.2253 76.5554L63.3327 78.0001ZM65.3734 74.6969L2.27395 35.7144L3.16703 34.2688L66.2665 73.2513L65.3734 74.6969ZM67.4142 71.3936L4.31552 32.4116L5.2086 30.9661L68.3073 69.948L67.4142 71.3936ZM69.4554 68.0895L6.35595 29.107L7.24851 27.6623L70.348 66.6447L69.4554 68.0895ZM71.4962 64.7862L8.39669 25.8038L9.28926 24.359L72.3887 63.3415L71.4962 64.7862ZM73.5369 61.483L10.4374 22.5005L11.33 21.0557L74.4295 60.0382L73.5369 61.483ZM75.5777 58.1797L12.4782 19.1972L13.3713 17.7516L76.4707 56.7341L75.5777 58.1797ZM77.6184 54.8764L14.5189 15.8939L15.412 14.4483L78.5115 53.4308L77.6184 54.8764ZM79.6588 51.5718L16.5602 12.5898L17.4527 11.1451L80.5514 50.127L79.6588 51.5718ZM81.7004 48.269L18.6009 9.28657L19.4935 7.8418L82.593 46.8243L81.7004 48.269ZM83.7403 44.9652L20.6416 5.98329L21.5347 4.5377L84.6334 43.5196L83.7403 44.9652ZM85.781 41.662L22.6824 2.68002L23.5755 1.23442L86.6741 40.2164L85.781 41.662ZM87.8218 38.3587L24.7231 -0.623251L25.6162 -2.06885L88.7149 36.9131L87.8218 38.3587Z" fill="black"/>
</g>
<path d="M42.3506 4.61133C62.7907 4.61147 79.3604 21.1819 79.3604 41.6221C79.3601 62.0621 62.7906 78.6317 42.3506 78.6318C21.9105 78.6318 5.34005 62.0621 5.33984 41.6221C5.33984 21.1818 21.9103 4.61133 42.3506 4.61133ZM42.3506 6.31055C22.8486 6.31055 7.03906 22.1201 7.03906 41.6221C7.03927 61.1239 22.8487 76.9336 42.3506 76.9336C61.8524 76.9335 77.6619 61.1238 77.6621 41.6221C77.6621 22.1201 61.8525 6.31069 42.3506 6.31055ZM35.5381 13.6387C36.3611 13.4998 36.8045 12.9829 37.4453 13.7959C37.8395 14.2963 37.9771 14.8938 37.7158 15.4932C37.5136 15.9571 36.5001 16.5823 37.3779 17.0137C38.4101 17.5205 39.5977 17.2282 40.4658 17.6406C41.1251 17.954 41.2061 18.7789 41.9375 19.0771C42.1066 19.146 42.3038 19.1279 42.46 19.2012C42.9892 19.4503 43.9082 20.1996 44.5068 19.7256L44.5645 19.6758C45.0653 19.1937 44.4723 18.1841 45.3877 17.7266L45.4814 17.6836C46.4409 17.2862 46.7937 17.7594 47.5586 18.0625C47.9697 18.2253 48.386 18.3746 48.8076 18.5088C49.6561 18.7789 51.5773 19.4203 52.4365 19.3916L52.5156 19.3867C53.4199 19.3032 54.4696 18.6994 55.3711 19.0557C55.9973 19.3033 56.5581 20.1368 56.5293 20.8115L56.5244 20.876C56.4503 21.5458 55.6911 22.3699 55.832 22.9512C56.5384 24.4423 57.8112 25.8381 58.1846 27.4717C58.3652 28.2622 58.26 28.9787 58.7871 29.6963C59.0085 29.9976 59.4114 30.2292 59.6113 30.5684C59.9217 31.0954 59.9315 31.9056 60.2529 32.4316C60.5237 32.8749 61.189 33.1484 61.5869 33.4814L61.6748 33.5566C62.1359 33.9651 62.9118 34.8051 63.1396 35.2812C63.3762 35.7756 63.2572 36.2655 63.8779 36.4824C64.6888 36.7655 65.9674 36.5075 66.9072 36.2744L67.2871 36.1777C67.5897 36.0992 69.3666 35.4707 69.4512 35.5537L69.4316 35.7295C69.211 37.5422 68.3197 39.3698 67.2549 40.8311L67.1699 40.9453C65.3821 43.3223 62.9296 44.2511 61.1787 46.6309L61.0908 46.7549C60.6074 47.4493 59.5555 49.2041 59.7266 49.8359C59.8167 50.1681 60.1291 50.1554 60.165 50.3809C60.199 50.596 60.0059 50.9083 59.9932 51.1855C59.9732 51.6203 60.1951 52.3238 60.4482 52.6758C60.5846 52.8653 60.9189 53.0523 60.9727 53.1406L60.9834 53.1621C61.0875 53.4001 60.9539 54.2439 60.9648 54.583C61.0016 55.7159 61.4853 56.6587 60.6777 57.6826L60.6309 57.7402C60.1415 58.3191 59.5462 58.4024 58.9238 58.7559L58.7871 58.8379C58.045 59.2959 56.4714 60.5053 56.5273 61.2754C56.5452 61.5186 56.7507 61.917 56.8086 62.2129C56.9835 63.107 57.3122 64.3582 56.3906 64.9482C56.0509 65.1656 55.1035 65.373 54.917 65.6562C54.7009 65.9851 54.9433 66.1103 54.9854 66.3789C55.0998 67.1107 54.5673 68.1101 54.168 68.7041C53.1028 70.2887 51.458 72.5157 49.5977 73.1816L49.5137 73.2109C48.6481 73.4917 47.9208 73.2848 47.042 73.373L46.9814 73.3799C46.3619 73.4669 45.1988 73.966 44.7383 73.9316L44.6943 73.9258C44.3005 73.8574 43.4642 72.7585 43.3896 72.3936C43.3554 72.2255 43.5105 72.0293 43.5244 71.79C43.5716 70.9724 43.0249 70.6671 42.6738 70.0586L42.6406 69.999C42.3886 69.5297 42.2635 68.9185 42.0449 68.4658L42 68.3779C41.6161 67.6657 41.3078 67.3848 41.0439 66.5674L40.9922 66.3955C40.6551 65.2283 40.7272 63.5553 40.3389 62.5752L40.2998 62.4824C39.2478 60.1371 37.6508 59.0967 38.793 56.1562C39.1201 55.3143 39.8674 54.7733 39.9619 53.8516C40.215 51.3807 38.2672 48.8727 36.8574 46.9453L36.584 46.5674C35.8298 45.5165 36.3509 45.2809 36.6279 44.2158C36.9468 42.9896 37.1788 41.3581 35.4688 41.2197C34.8908 41.1732 34.1608 41.5484 33.7246 41.3496C33.377 41.1909 33.3319 40.7677 33.1309 40.4873C32.2386 39.2432 30.3436 39.8102 29.1641 40.3066C28.4473 40.6084 28.0724 40.9971 27.2246 41.0166C26.453 41.0342 25.5266 40.6657 24.8154 40.7227C24.2181 40.7707 23.6896 41.2863 23.0371 41.2959L22.9609 41.2939C22.1995 41.2403 20.7308 40.2827 20.0547 39.7402L19.9268 39.6348C18.7681 38.643 18.2926 36.9341 17.2217 35.7959C16.8315 35.3812 16.4649 35.4071 16.2139 35.1875C16.004 35.0038 16.0732 34.7145 16.0244 34.4678L16.0127 34.4189C15.9297 34.1184 15.5609 33.3511 15.5605 33.1709C15.5604 32.8678 15.8473 32.6154 15.9512 32.3447C16.3227 31.3764 16.5667 29.944 16.2373 28.9434C16.1507 28.6804 15.8749 28.4525 15.8242 28.2256C15.6281 27.347 16.1463 26.3851 16.6025 25.5957L16.792 25.2695C17.1501 24.6468 18.4425 22.499 18.875 22.1006C19.0585 21.9317 19.6711 21.763 20.0166 21.5693L20.082 21.5303C20.5095 21.2554 21.3856 20.3306 21.4385 19.8311C21.4565 19.6601 21.3364 19.4284 21.3193 19.2334L21.3174 19.1943C21.3105 18.6012 21.8339 17.4032 22.3877 17.1309C22.6166 17.0183 22.8523 17.0213 23.0703 16.9238C23.9622 16.5249 24.1994 14.9522 24.4521 14.8291C24.6999 14.7094 25.8298 15.249 26.2129 15.333C27.7415 15.6679 27.8004 15.0362 28.8916 14.5039L29 14.4531C29.8696 14.0598 31.3506 13.7509 32.3701 13.6699L32.5674 13.6572C33.5646 13.605 34.4078 13.8065 35.4375 13.6543L35.5381 13.6387ZM35.7246 15.3281C35.0408 15.4332 34.4409 15.417 33.9482 15.3916C33.3977 15.3632 33.0559 15.3326 32.6562 15.3535C31.8403 15.3963 30.5574 15.6554 29.8369 15.9424L29.7002 16.001C29.5298 16.0781 29.3982 16.1604 29.251 16.2627C29.1498 16.333 28.8496 16.5573 28.5781 16.709C28.2323 16.9023 27.8221 17.0579 27.3135 17.1084C26.8356 17.1558 26.3491 17.1019 25.8486 16.9922L25.6582 16.9434C25.5993 16.9262 25.5458 16.9091 25.502 16.8945C25.4575 16.8798 25.4125 16.8644 25.3682 16.8486C25.267 17.0423 25.1439 17.2511 24.9941 17.4541C24.7361 17.8038 24.3412 18.217 23.7627 18.4756C23.6017 18.5475 23.4558 18.5932 23.3447 18.623C23.311 18.6321 23.2767 18.6399 23.2451 18.6475C23.2217 18.6865 23.1956 18.7336 23.1689 18.7881C23.1115 18.9058 23.0668 19.0254 23.0391 19.123C23.0561 19.1847 23.0782 19.2679 23.0957 19.3574C23.1218 19.4912 23.1576 19.727 23.1279 20.0088C23.0758 20.5034 22.8598 20.9104 22.7236 21.1387C22.5647 21.405 22.3741 21.6539 22.1943 21.8652C21.8576 22.2611 21.4076 22.6979 21 22.96C20.8028 23.0866 20.6 23.1797 20.4609 23.2402C20.3157 23.3034 20.1602 23.3648 20.0557 23.4062C20.0186 23.4209 19.9867 23.4341 19.959 23.4453C19.922 23.4944 19.8713 23.5617 19.8076 23.6523C19.6415 23.8888 19.4445 24.19 19.2402 24.5117C18.8322 25.1544 18.4318 25.8256 18.2646 26.1162C17.9894 26.5948 17.7687 26.9558 17.6133 27.333C17.5464 27.4954 17.5105 27.6208 17.4932 27.7139C17.5215 27.7548 17.5522 27.8011 17.582 27.8486C17.6512 27.9587 17.7434 28.1201 17.8193 28.3223L17.8516 28.4121L17.8984 28.5664C18.1205 29.3391 18.1216 30.1528 18.0459 30.8418C17.9631 31.5957 17.7734 32.3384 17.5371 32.9541C17.4917 33.0723 17.44 33.1772 17.3926 33.2646C17.4242 33.3418 17.4581 33.4241 17.4873 33.498C17.5331 33.6138 17.6027 33.795 17.6504 33.9678C17.6548 33.9838 17.6591 33.9999 17.6631 34.0156C17.8819 34.1351 18.1313 34.3027 18.3809 34.5508L18.459 34.6318C19.1635 35.3807 19.6584 36.3024 20.0156 36.9258C20.4233 37.6371 20.7039 38.0635 21.0312 38.3438C21.2505 38.5314 21.7461 38.8927 22.2744 39.2002C22.5344 39.3515 22.7661 39.4683 22.9473 39.542C22.9791 39.5549 23.0065 39.565 23.0293 39.5732C23.071 39.556 23.1332 39.5291 23.2217 39.4873C23.3362 39.4333 23.5507 39.3298 23.7686 39.2461C23.9992 39.1575 24.3111 39.0589 24.6797 39.0293L24.7988 39.0225C25.3946 38.996 25.9886 39.1218 26.3291 39.1895C26.8056 39.2841 27.0266 39.322 27.1855 39.3184C27.3135 39.3154 27.3835 39.2957 27.5146 39.2334C27.6139 39.1862 27.6991 39.1385 27.8809 39.042C28.044 38.9553 28.255 38.8464 28.5049 38.7412L28.7607 38.6357C29.3924 38.3858 30.2525 38.1076 31.1436 38.0488C32.1788 37.9806 33.5855 38.2057 34.5117 39.4971C34.5364 39.5314 34.5593 39.5661 34.5811 39.5996C34.6344 39.5895 34.6885 39.5797 34.7402 39.5713C34.9554 39.5362 35.2643 39.4987 35.6064 39.5264C36.3067 39.5831 36.9957 39.8109 37.5508 40.3086C38.1048 40.8054 38.3648 41.4275 38.4746 41.9766C38.6744 42.9756 38.4304 44.0324 38.2715 44.6436C38.1731 45.0216 38.0534 45.3205 37.9727 45.5205C37.9663 45.5363 37.9616 45.5518 37.9561 45.5654C37.9587 45.5692 37.9611 45.5733 37.9639 45.5771L38.2227 45.9336C38.8607 46.8047 39.7179 47.9423 40.3848 49.126C41.1255 50.4407 41.7967 52.0811 41.667 53.8525L41.6523 54.0244C41.5604 54.9212 41.1462 55.5793 40.874 55.9834C40.549 56.4661 40.451 56.5811 40.377 56.7715C39.9621 57.8396 40.0762 58.3776 40.2891 58.8828C40.43 59.2171 40.6289 59.5565 40.9229 60.0537C41.2004 60.5231 41.5437 61.1039 41.8506 61.7881C42.1977 62.5623 42.2985 63.5247 42.3672 64.1689C42.4507 64.9529 42.5022 65.5019 42.624 65.9238C42.7174 66.247 42.806 66.4218 42.9082 66.5947C42.9762 66.7097 43.0373 66.8028 43.1475 66.9785C43.2489 67.1402 43.3678 67.335 43.4951 67.5713C43.702 67.9551 43.8412 68.3883 43.9229 68.6318C44.0271 68.9427 44.0832 69.0938 44.1377 69.1953C44.1582 69.2334 44.1923 69.2863 44.2734 69.3906C44.3254 69.4575 44.4986 69.6704 44.6211 69.8447C44.9397 70.2983 45.2525 70.9305 45.2236 71.8027L45.2197 71.8877C45.2152 71.9661 45.2068 72.0399 45.1963 72.1084C45.2291 72.0984 45.264 72.0892 45.2998 72.0781C45.503 72.0155 45.7723 71.9293 46.0127 71.8613C46.2406 71.7969 46.5589 71.7141 46.8721 71.6826L46.9805 71.6729C47.5254 71.6293 48.088 71.6635 48.3379 71.666C48.6655 71.6693 48.8476 71.6456 49.0254 71.582C49.5761 71.3848 50.2284 70.8947 50.9346 70.1328C51.6202 69.3931 52.2393 68.5272 52.7578 67.7559C52.9145 67.5227 53.0834 67.2297 53.1953 66.9541C53.2395 66.8453 53.2676 66.7559 53.2842 66.6885C53.276 66.6681 53.267 66.6466 53.2588 66.624C53.179 66.4061 53.0971 66.0778 53.1426 65.6777C53.187 65.2877 53.3366 64.967 53.498 64.7217C53.668 64.4635 53.869 64.2925 54.0029 64.1924C54.1446 64.0865 54.2836 64.0065 54.3936 63.9492C54.6084 63.8373 54.8344 63.7493 54.9951 63.6885C55.1464 63.6313 55.2265 63.6015 55.3105 63.5703C55.3066 63.4777 55.2941 63.3593 55.2695 63.208C55.235 62.9958 55.1955 62.8164 55.1445 62.5566C55.1429 62.5511 55.1386 62.5368 55.1309 62.5137C55.1126 62.4589 55.0926 62.4046 55.0566 62.3057C55.0263 62.2223 54.981 62.0969 54.9424 61.9668C54.9112 61.8617 54.8648 61.6904 54.8418 61.4883L54.833 61.4004C54.7742 60.5988 55.1556 59.9548 55.3877 59.6201C55.658 59.2304 55.9982 58.8803 56.3076 58.5967C56.9252 58.0306 57.6427 57.5305 58.085 57.2793C58.3219 57.1447 58.5439 57.0433 58.7158 56.9678C58.9111 56.882 59.0042 56.844 59.1133 56.791C59.2719 56.7139 59.3083 56.677 59.3447 56.6309C59.4101 56.5479 59.4234 56.5022 59.4287 56.4824C59.4364 56.4538 59.448 56.3925 59.4414 56.2568C59.4338 56.1017 59.4091 55.9349 59.3672 55.6436C59.3294 55.3813 59.2792 55.0252 59.2666 54.6377C59.2632 54.5323 59.2661 54.4314 59.2695 54.3535C59.2731 54.2723 59.2788 54.1902 59.2842 54.1162C59.2891 54.0482 59.2927 53.9904 59.2969 53.9375C59.225 53.8635 59.1452 53.7734 59.0693 53.668C58.7975 53.2901 58.6109 52.8379 58.4951 52.4629C58.3807 52.0923 58.2733 51.5974 58.2959 51.1074L58.3018 51.0186C58.3071 50.9547 58.3153 50.8937 58.3242 50.8369C58.2249 50.6714 58.1427 50.4866 58.0869 50.2812C57.8985 49.5868 58.1016 48.9104 58.2031 48.6016C58.3369 48.1948 58.5284 47.7803 58.7148 47.4189C59.0879 46.696 59.5437 45.9868 59.8105 45.624C60.8578 44.2005 62.1121 43.2335 63.1631 42.4102C64.2496 41.559 65.1422 40.845 65.8818 39.8301C66.2993 39.2572 66.6727 38.6382 66.9766 38.0039C66.6194 38.0864 66.2176 38.1688 65.8096 38.2256C65.157 38.3163 64.2401 38.3834 63.3984 38.1133L63.3174 38.0859C62.9495 37.9574 62.5958 37.7526 62.3008 37.4414C62.0109 37.1357 61.8579 36.811 61.7695 36.5693C61.6964 36.3692 61.6375 36.1281 61.626 36.085C61.615 36.0439 61.6079 36.0213 61.6045 36.0107C61.5931 35.9923 61.5605 35.9416 61.4961 35.8555C61.4098 35.74 61.2976 35.6027 61.1689 35.458C60.936 35.1959 60.7021 34.9652 60.5547 34.834L60.4971 34.7842C60.3947 34.6985 60.3305 34.676 59.9355 34.415C59.6753 34.243 59.1517 33.8886 58.8027 33.3174C58.4783 32.7863 58.3441 32.1766 58.2773 31.9023C58.2334 31.7216 58.2057 31.6112 58.1758 31.5156C58.1685 31.4924 58.1613 31.474 58.1562 31.46C58.1374 31.442 58.1104 31.417 58.0713 31.3818C58.0172 31.3332 57.9024 31.2326 57.8027 31.1367C57.6961 31.0341 57.5536 30.8868 57.418 30.7021C56.9415 30.0535 56.7679 29.4108 56.6807 28.8936C56.6417 28.6625 56.6137 28.4147 56.5947 28.2627C56.5727 28.0868 56.5539 27.9617 56.5283 27.8496C56.4069 27.3186 56.122 26.7596 55.6846 26.0459C55.2958 25.4117 54.7022 24.5343 54.2969 23.6787L54.2227 23.5215L54.1816 23.3525C54.0393 22.7668 54.1586 22.2511 54.2578 21.9414C54.3593 21.6248 54.5053 21.3326 54.5986 21.1475C54.6963 20.9538 54.7537 20.8422 54.7988 20.7422C54.7934 20.733 54.7879 20.7229 54.7812 20.7129C54.7624 20.6844 54.7424 20.661 54.7256 20.6426C54.6686 20.645 54.5508 20.6575 54.3398 20.708C54.108 20.7635 53.9673 20.8088 53.6475 20.8926C53.3858 20.9611 53.0409 21.044 52.6719 21.0781C52.2317 21.1187 51.7676 21.0553 51.416 20.9922C51.0314 20.9232 50.6232 20.8242 50.2412 20.7207C49.8606 20.6176 49.4774 20.5022 49.1377 20.3965L48.293 20.1279C47.8312 19.981 47.3776 19.8179 46.9326 19.6416L46.6807 19.5332C46.6019 19.497 46.5284 19.4615 46.4629 19.4287C46.4603 19.4471 46.4581 19.4666 46.4551 19.4854C46.3977 19.842 46.2451 20.4154 45.7422 20.8994L45.5381 21.0771C44.5066 21.8853 43.3302 21.5201 42.8457 21.3203C42.5443 21.196 42.2727 21.0425 42.0898 20.9375C41.9806 20.8747 41.9075 20.8325 41.8555 20.8027C41.8181 20.7966 41.7745 20.7892 41.7305 20.7803C41.6222 20.7583 41.4683 20.7212 41.2969 20.6514C40.4121 20.2909 39.9618 19.5994 39.7744 19.3262C39.7159 19.2408 39.6736 19.1826 39.6455 19.1445C39.5337 19.1177 39.3255 19.0939 38.8506 19.0566C38.3501 19.0174 37.5251 18.9567 36.707 18.5762L36.6279 18.5381C36.1848 18.3203 35.5383 17.8595 35.3652 16.9912C35.2087 16.2054 35.5568 15.5944 35.7051 15.3594C35.7116 15.3491 35.7179 15.3384 35.7246 15.3281Z" fill="black"/>
<path d="M26.9375 33.0054H23.5391V28.394H26.9375V33.0054ZM41.7412 33.0054H38.3438V28.394H41.7412V33.0054ZM32.5195 31.7925H29.1211V27.1812H32.5195V31.7925ZM20.6279 24.2632V29.8511L15.2891 26.4585V20.8716L20.6279 24.2632ZM38.8291 26.6958H35.4316V22.0845H38.8291V26.6958ZM30.335 13.5903V23.6899L20.3848 17.5005V7.40186L30.335 13.5903Z" fill="white"/>
<path d="M16.3828 7.86768L24.6343 12.9839L18.4457 19.9011L12.6211 16.4838L16.3828 7.86768Z" fill="white"/>
<path d="M30.1629 19.0046L29.1424 20.6564L7.25691 7.13563L8.27734 5.48389L30.1629 19.0046Z" fill="black"/>
<path d="M30.5801 18.623V22.3271L27.9102 20.6934V16.9883L30.5801 18.623ZM14.3193 8.50391V12.377L11.6504 10.668V6.79492L14.3193 8.50391ZM8.98047 3.64062V11.8916L3.15527 8.25195V0L8.98047 3.64062Z" fill="white"/>
<path d="M3.88379 9.70752L18.0812 17.4736L13.3487 27.1813L3.88379 21.2517V9.70752Z" fill="white"/>
<path d="M16.0056 23.3797L14.9852 25.0315L0.945387 16.3578L1.96582 14.7061L16.0056 23.3797Z" fill="black"/>
<path d="M16.3809 23.541L15.2891 26.332L14.4395 25.9678V22.3271L16.3809 23.541ZM8.49414 13.918V26.2109L0 20.7871V8.49414L8.49414 13.918Z" fill="white"/>
<path d="M67.9541 83.2432L47.8108 70.9873V63.9492L67.226 75.8411L67.9541 83.2432Z" fill="white"/>
<path d="M51.4512 70.4224V68.1401L62.6152 75.0376V77.3198L51.4512 70.4224ZM65.042 78.8188V76.5366L67.4688 78.0356V80.3179L65.042 78.8188Z" fill="black"/>
<path d="M128.098 55.374C127.845 55.374 127.599 55.341 127.358 55.275C127.117 55.209 126.925 55.1255 126.781 55.0246L127.061 54.4712C127.201 54.5644 127.368 54.6401 127.562 54.6984C127.76 54.7527 127.954 54.7799 128.144 54.7799C128.579 54.7799 128.797 54.6654 128.797 54.4363C128.797 54.3276 128.74 54.2518 128.628 54.2091C128.519 54.1664 128.342 54.1256 128.098 54.0868C127.841 54.048 127.632 54.0033 127.469 53.9528C127.309 53.9024 127.17 53.815 127.049 53.6907C126.933 53.5626 126.874 53.3859 126.874 53.1607C126.874 52.8656 126.997 52.6307 127.241 52.4559C127.49 52.2773 127.824 52.188 128.243 52.188C128.457 52.188 128.67 52.2132 128.884 52.2637C129.097 52.3103 129.272 52.3744 129.408 52.4559L129.129 53.0093C128.865 52.8539 128.567 52.7763 128.237 52.7763C128.024 52.7763 127.861 52.8093 127.748 52.8753C127.639 52.9374 127.585 53.0209 127.585 53.1257C127.585 53.2422 127.643 53.3257 127.76 53.3762C127.88 53.4228 128.065 53.4675 128.313 53.5102C128.562 53.549 128.765 53.5937 128.925 53.6441C129.084 53.6946 129.22 53.78 129.332 53.9004C129.449 54.0208 129.507 54.1916 129.507 54.413C129.507 54.7042 129.381 54.9372 129.129 55.1119C128.876 55.2867 128.533 55.374 128.098 55.374Z" fill="black"/>
<path d="M126.437 53.7956C126.437 53.8461 126.433 53.9179 126.425 54.0111H123.985C124.028 54.2402 124.138 54.4227 124.317 54.5586C124.499 54.6906 124.725 54.7566 124.993 54.7566C125.334 54.7566 125.616 54.644 125.837 54.4188L126.227 54.8673C126.088 55.0343 125.911 55.1605 125.697 55.2459C125.484 55.3313 125.243 55.374 124.975 55.374C124.633 55.374 124.332 55.3061 124.072 55.1702C123.812 55.0343 123.61 54.8459 123.467 54.6052C123.327 54.3606 123.257 54.0849 123.257 53.7781C123.257 53.4752 123.325 53.2034 123.461 52.9627C123.6 52.718 123.793 52.5278 124.037 52.3918C124.282 52.2559 124.558 52.188 124.864 52.188C125.167 52.188 125.437 52.2559 125.674 52.3918C125.915 52.5239 126.101 52.7122 126.233 52.9568C126.369 53.1976 126.437 53.4772 126.437 53.7956ZM124.864 52.7704C124.631 52.7704 124.433 52.8403 124.27 52.9801C124.111 53.116 124.014 53.2985 123.979 53.5276H125.744C125.713 53.3024 125.618 53.1199 125.459 52.9801C125.299 52.8403 125.101 52.7704 124.864 52.7704Z" fill="black"/>
<path d="M121.829 52.2227H122.558V55.333H121.829V52.2227ZM122.196 51.7101C122.064 51.7101 121.954 51.6693 121.864 51.5878C121.775 51.5024 121.73 51.3975 121.73 51.2733C121.73 51.149 121.775 51.0461 121.864 50.9646C121.954 50.8791 122.064 50.8364 122.196 50.8364C122.328 50.8364 122.439 50.8772 122.528 50.9587C122.618 51.0364 122.662 51.1354 122.662 51.2558C122.662 51.3839 122.618 51.4927 122.528 51.582C122.443 51.6674 122.332 51.7101 122.196 51.7101Z" fill="black"/>
<path d="M120.873 52.2229V54.8615C120.873 55.9565 120.313 56.504 119.195 56.504C118.896 56.504 118.613 56.4652 118.345 56.3875C118.077 56.3137 117.855 56.205 117.681 56.0613L118.007 55.5138C118.143 55.6264 118.314 55.7157 118.519 55.7818C118.729 55.8516 118.941 55.8866 119.154 55.8866C119.496 55.8866 119.747 55.8089 119.906 55.6536C120.065 55.4983 120.145 55.2614 120.145 54.943V54.7799C120.02 54.9158 119.869 55.0187 119.69 55.0886C119.512 55.1585 119.316 55.1935 119.102 55.1935C118.807 55.1935 118.539 55.1313 118.298 55.0071C118.061 54.8789 117.873 54.7003 117.733 54.4712C117.597 54.2421 117.529 53.98 117.529 53.6849C117.529 53.3898 117.597 53.1296 117.733 52.9044C117.873 52.6753 118.061 52.4986 118.298 52.3744C118.539 52.2501 118.807 52.188 119.102 52.188C119.327 52.188 119.531 52.2249 119.714 52.2987C119.9 52.3724 120.055 52.485 120.179 52.6365V52.2229H120.873ZM119.213 54.5761C119.488 54.5761 119.714 54.4945 119.888 54.3314C120.067 54.1645 120.156 53.949 120.156 53.6849C120.156 53.4247 120.067 53.2131 119.888 53.05C119.714 52.8869 119.488 52.8054 119.213 52.8054C118.933 52.8054 118.704 52.8869 118.525 53.05C118.351 53.2131 118.263 53.4247 118.263 53.6849C118.263 53.949 118.351 54.1645 118.525 54.3314C118.704 54.4945 118.933 54.5761 119.213 54.5761Z" fill="black"/>
<path d="M115.43 55.374C115.115 55.374 114.832 55.3061 114.579 55.1702C114.327 55.0343 114.129 54.8459 113.985 54.6052C113.845 54.3606 113.775 54.0849 113.775 53.7781C113.775 53.4713 113.845 53.1976 113.985 52.9568C114.129 52.7161 114.327 52.5278 114.579 52.3918C114.832 52.2559 115.115 52.188 115.43 52.188C115.748 52.188 116.033 52.2559 116.286 52.3918C116.538 52.5278 116.734 52.7161 116.874 52.9568C117.018 53.1976 117.09 53.4713 117.09 53.7781C117.09 54.0849 117.018 54.3606 116.874 54.6052C116.734 54.8459 116.538 55.0343 116.286 55.1702C116.033 55.3061 115.748 55.374 115.43 55.374ZM115.43 54.7508C115.698 54.7508 115.919 54.6615 116.094 54.4829C116.268 54.3043 116.356 54.0693 116.356 53.7781C116.356 53.4869 116.268 53.2519 116.094 53.0733C115.919 52.8947 115.698 52.8054 115.43 52.8054C115.162 52.8054 114.94 52.8947 114.766 53.0733C114.595 53.2519 114.509 53.4869 114.509 53.7781C114.509 54.0693 114.595 54.3043 114.766 54.4829C114.94 54.6615 115.162 54.7508 115.43 54.7508Z" fill="black"/>
<path d="M112.347 51.0112H113.075V55.3331H112.347V51.0112Z" fill="black"/>
<path d="M109.991 55.374C109.677 55.374 109.393 55.3061 109.141 55.1702C108.888 55.0343 108.69 54.8459 108.547 54.6052C108.407 54.3606 108.337 54.0849 108.337 53.7781C108.337 53.4713 108.407 53.1976 108.547 52.9568C108.69 52.7161 108.888 52.5278 109.141 52.3918C109.393 52.2559 109.677 52.188 109.991 52.188C110.31 52.188 110.595 52.2559 110.847 52.3918C111.1 52.5278 111.296 52.7161 111.436 52.9568C111.579 53.1976 111.651 53.4713 111.651 53.7781C111.651 54.0849 111.579 54.3606 111.436 54.6052C111.296 54.8459 111.1 55.0343 110.847 55.1702C110.595 55.3061 110.31 55.374 109.991 55.374ZM109.991 54.7508C110.259 54.7508 110.48 54.6615 110.655 54.4829C110.83 54.3043 110.917 54.0693 110.917 53.7781C110.917 53.4869 110.83 53.2519 110.655 53.0733C110.48 52.8947 110.259 52.8054 109.991 52.8054C109.723 52.8054 109.502 52.8947 109.327 53.0733C109.156 53.2519 109.071 53.4869 109.071 53.7781C109.071 54.0693 109.156 54.3043 109.327 54.4829C109.502 54.6615 109.723 54.7508 109.991 54.7508Z" fill="black"/>
<path d="M106.342 52.188C106.734 52.188 107.049 52.3025 107.286 52.5316C107.522 52.7607 107.641 53.1005 107.641 53.5509V55.3333H106.913V53.6441C106.913 53.3723 106.849 53.1685 106.721 53.0326C106.592 52.8928 106.41 52.8229 106.173 52.8229C105.905 52.8229 105.694 52.9044 105.538 53.0675C105.383 53.2267 105.305 53.4577 105.305 53.7606V55.3333H104.577V52.2229H105.27V52.6248C105.391 52.4812 105.542 52.3724 105.725 52.2987C105.907 52.2249 106.113 52.188 106.342 52.188Z" fill="black"/>
<path d="M102.356 52.1878C102.748 52.1878 103.062 52.3023 103.299 52.5314C103.536 52.7605 103.655 53.1003 103.655 53.5507V55.3331H102.926V53.6439C102.926 53.3721 102.862 53.1683 102.734 53.0324C102.606 52.8926 102.424 52.8227 102.187 52.8227C101.919 52.8227 101.707 52.9042 101.552 53.0673C101.397 53.2265 101.319 53.4576 101.319 53.7604V55.3331H100.591V51.0112H101.319V52.5839C101.439 52.4557 101.587 52.3587 101.762 52.2926C101.94 52.2227 102.138 52.1878 102.356 52.1878Z" fill="black"/>
<path d="M98.6608 55.374C98.3385 55.374 98.0493 55.3061 97.793 55.1702C97.5367 55.0343 97.3367 54.8459 97.193 54.6052C97.0494 54.3606 96.9775 54.0849 96.9775 53.7781C96.9775 53.4713 97.0494 53.1976 97.193 52.9568C97.3367 52.7161 97.5348 52.5278 97.7872 52.3918C98.0434 52.2559 98.3347 52.188 98.6608 52.188C98.9676 52.188 99.2355 52.2501 99.4646 52.3744C99.6976 52.4986 99.8724 52.6773 99.9888 52.9102L99.4297 53.2364C99.3404 53.0927 99.2278 52.986 99.0919 52.9161C98.9598 52.8423 98.8142 52.8054 98.655 52.8054C98.3832 52.8054 98.158 52.8947 97.9794 53.0733C97.8007 53.2481 97.7114 53.483 97.7114 53.7781C97.7114 54.0732 97.7988 54.3101 97.9735 54.4887C98.1522 54.6634 98.3793 54.7508 98.655 54.7508C98.8142 54.7508 98.9598 54.7159 99.0919 54.646C99.2278 54.5722 99.3404 54.4635 99.4297 54.3198L99.9888 54.646C99.8685 54.8789 99.6918 55.0595 99.4588 55.1876C99.2297 55.3119 98.9637 55.374 98.6608 55.374Z" fill="black"/>
<path d="M96.5347 53.7956C96.5347 53.8461 96.5308 53.9179 96.5231 54.0111H94.0826C94.1253 54.2402 94.2359 54.4227 94.4146 54.5586C94.5971 54.6906 94.8223 54.7566 95.0902 54.7566C95.4319 54.7566 95.7134 54.644 95.9348 54.4188L96.325 54.8673C96.1852 55.0343 96.0086 55.1605 95.795 55.2459C95.5814 55.3313 95.3407 55.374 95.0727 55.374C94.731 55.374 94.4301 55.3061 94.1699 55.1702C93.9098 55.0343 93.7079 54.8459 93.5642 54.6052C93.4244 54.3606 93.3545 54.0849 93.3545 53.7781C93.3545 53.4752 93.4224 53.2034 93.5584 52.9627C93.6981 52.718 93.8904 52.5278 94.135 52.3918C94.3796 52.2559 94.6553 52.188 94.9621 52.188C95.265 52.188 95.5348 52.2559 95.7717 52.3918C96.0124 52.5239 96.1988 52.7122 96.3309 52.9568C96.4668 53.1976 96.5347 53.4772 96.5347 53.7956ZM94.9621 52.7704C94.7291 52.7704 94.5311 52.8403 94.368 52.9801C94.2088 53.116 94.1117 53.2985 94.0767 53.5276H95.8416C95.8105 53.3024 95.7154 53.1199 95.5562 52.9801C95.397 52.8403 95.1989 52.7704 94.9621 52.7704Z" fill="black"/>
<path d="M93.1143 55.1639C93.0289 55.2338 92.924 55.2862 92.7998 55.3211C92.6794 55.3561 92.5512 55.3736 92.4153 55.3736C92.0736 55.3736 91.8096 55.2842 91.6232 55.1056C91.4368 54.927 91.3436 54.6668 91.3436 54.3251V52.8282H90.8311V52.2458H91.3436V51.5352H92.0717V52.2458H92.9046V52.8282H92.0717V54.3077C92.0717 54.4591 92.1086 54.5756 92.1824 54.6571C92.2561 54.7348 92.3629 54.7736 92.5027 54.7736C92.6658 54.7736 92.8017 54.7309 92.9104 54.6455L93.1143 55.1639Z" fill="black"/>
<path d="M158.823 47.567V34.8927C158.823 34.23 158.937 33.7951 159.165 33.588C159.393 33.3809 159.838 33.2773 160.501 33.2773H174.852V35.9489H163.918V38.9311H173.858V41.5715H163.918V44.8954H174.852V47.567H158.823Z" fill="black"/>
<path d="M156.081 40.4846C156.081 41.9964 155.905 43.2286 155.552 44.1813C155.221 45.1132 154.693 45.8277 153.968 46.3247C153.264 46.8217 152.363 47.1634 151.266 47.3498C150.168 47.5155 148.853 47.5983 147.32 47.5983C146.388 47.5983 145.498 47.5983 144.649 47.5983C143.8 47.5983 143.002 47.588 142.257 47.5673C141.511 47.5673 140.807 47.5673 140.145 47.5673C139.503 47.5673 138.902 47.5673 138.343 47.5673V35.3279C138.343 34.6031 138.488 34.0853 138.778 33.7747C139.068 33.464 139.606 33.2984 140.393 33.2776C140.931 33.2776 141.511 33.2776 142.133 33.2776C142.775 33.2569 143.417 33.2466 144.059 33.2466C144.721 33.2466 145.374 33.2466 146.016 33.2466C146.678 33.2466 147.289 33.2466 147.848 33.2466C149.319 33.2673 150.572 33.3812 151.607 33.5883C152.643 33.7747 153.492 34.1267 154.155 34.6445C154.817 35.1415 155.304 35.8663 155.615 36.819C155.925 37.7509 156.081 38.9728 156.081 40.4846ZM143.437 44.9889C143.644 44.9889 143.883 44.9889 144.152 44.9889C144.442 44.9889 144.742 44.9993 145.053 45.02C145.384 45.02 145.705 45.02 146.016 45.02C146.326 45.02 146.596 45.02 146.823 45.02C147.548 45.02 148.169 44.9579 148.687 44.8336C149.205 44.7094 149.619 44.4816 149.93 44.1502C150.24 43.8188 150.468 43.3529 150.613 42.7523C150.758 42.1517 150.831 41.3958 150.831 40.4846C150.831 39.1799 150.696 38.1962 150.427 37.5335C150.178 36.8708 149.754 36.4255 149.153 36.1977C148.573 35.9492 147.755 35.8249 146.699 35.8249C146.451 35.8249 146.13 35.8249 145.736 35.8249C145.363 35.8249 144.991 35.8353 144.618 35.856C144.245 35.856 143.924 35.8663 143.655 35.8871C143.593 35.9906 143.541 36.1149 143.499 36.2598C143.458 36.4048 143.437 36.6119 143.437 36.8811V44.9889Z" fill="black"/>
<path d="M129.761 47.567C129.761 45.4546 129.761 43.3422 129.761 41.2298C129.761 39.1175 129.761 37.0051 129.761 34.8927C129.761 34.5406 129.781 34.2507 129.823 34.0229C129.885 33.7744 130.03 33.588 130.258 33.4637C130.506 33.3395 130.9 33.2773 131.438 33.2773H134.855V47.567H129.761Z" fill="black"/>
<path d="M118.444 42.7522C118.444 42.7522 118.237 42.7522 117.823 42.7522C117.43 42.7522 116.922 42.7626 116.301 42.7833C115.68 42.7833 115.038 42.7833 114.375 42.7833V47.5672H109.28V35.1725C109.28 34.5719 109.415 34.1059 109.684 33.7746C109.953 33.4432 110.502 33.2776 111.331 33.2776C111.641 33.2776 112.107 33.2776 112.728 33.2776C113.35 33.2568 114.064 33.2465 114.872 33.2465C115.68 33.2465 116.508 33.2465 117.357 33.2465C118.227 33.2258 119.055 33.2258 119.842 33.2465C120.629 33.2465 121.313 33.2568 121.892 33.2776C122.493 33.2776 122.928 33.2879 123.197 33.3086C124.315 33.4122 125.154 33.7539 125.713 34.3337C126.273 34.8929 126.552 35.8145 126.552 37.0985C126.552 38.2582 126.459 39.1073 126.273 39.6458C126.107 40.1635 125.827 40.5673 125.434 40.8573C125.289 40.9608 125.092 41.0437 124.844 41.1058C124.595 41.1679 124.315 41.199 124.005 41.199V41.3232C124.15 41.3232 124.305 41.3232 124.471 41.3232C124.657 41.3232 124.812 41.3336 124.937 41.3543C125.724 41.4993 126.19 41.7996 126.335 42.2552C126.5 42.7108 126.583 43.1871 126.583 43.6841V46.4178C126.583 46.8113 126.625 47.1012 126.707 47.2876C126.79 47.4533 126.842 47.5465 126.863 47.5672H123.073C122.534 47.5672 122.11 47.4844 121.799 47.3187C121.509 47.153 121.364 46.8009 121.364 46.2625V44.2122C121.364 43.5702 121.219 43.1664 120.929 43.0007C120.66 42.835 120.174 42.7522 119.469 42.7522H118.444ZM114.375 40.3292C114.603 40.3292 114.944 40.3395 115.4 40.3602C115.876 40.3602 116.394 40.3602 116.953 40.3602C117.512 40.3602 118.02 40.3602 118.475 40.3602C118.952 40.3602 119.293 40.3602 119.5 40.3602C119.998 40.3602 120.432 40.2049 120.805 39.8943C121.199 39.5629 121.395 38.952 121.395 38.0615C121.395 37.4402 121.281 36.9535 121.054 36.6014C120.847 36.2494 120.495 36.0526 119.998 36.0112C119.708 35.9491 119.314 35.918 118.817 35.918C118.341 35.918 117.833 35.918 117.295 35.918C116.777 35.918 116.301 35.9284 115.866 35.9491C115.431 35.9491 115.11 35.9491 114.903 35.9491C114.862 35.9491 114.758 35.9802 114.592 36.0423C114.447 36.1044 114.375 36.2597 114.375 36.5083V40.3292Z" fill="black"/>
<path d="M90.6279 47.567V34.8927C90.6279 34.23 90.7418 33.7951 90.9696 33.588C91.1974 33.3809 91.6427 33.2773 92.3054 33.2773H106.657V35.9489H95.7225V38.9311H105.663V41.5715H95.7225V44.8954H106.657V47.567H90.6279Z" fill="black"/>
</svg>
