<svg width="175" height="84" viewBox="0 0 175 84" fill="none" xmlns="http://www.w3.org/2000/svg">
<mask id="mask0_93_463" style="mask-type:alpha" maskUnits="userSpaceOnUse" x="15" y="13" width="55" height="61">
<path d="M61.5875 33.4808C62.0305 33.8514 62.8969 34.7727 63.14 35.2807C63.3767 35.7751 63.257 36.2648 63.8779 36.4817C64.8047 36.8055 66.3426 36.4221 67.2875 36.177C67.5898 36.0986 69.367 35.4702 69.4513 35.5533C69.2688 37.4233 68.3544 39.3218 67.2551 40.8303C65.4607 43.2927 62.958 44.2128 61.1793 46.6305C60.753 47.21 59.5441 49.162 59.727 49.8358C59.8171 50.168 60.129 50.1546 60.1649 50.3801C60.1992 50.5952 60.0062 50.9077 59.9934 51.1851C59.9734 51.6199 60.1954 52.3235 60.4486 52.6755C60.5851 52.8652 60.9192 53.0525 60.9726 53.1407C61.0962 53.3448 60.9537 54.2326 60.965 54.5826C61.0018 55.7155 61.4861 56.6586 60.6785 57.6825C60.1804 58.3139 59.5667 58.3909 58.9242 58.7558C58.2627 59.1315 56.4675 60.4539 56.5279 61.2754C56.5457 61.5187 56.7507 61.9169 56.8086 62.2129C56.9835 63.107 57.3124 64.3576 56.3907 64.9476C56.051 65.165 55.1041 65.3721 54.9176 65.6553C54.7009 65.9846 54.9436 66.1099 54.9856 66.3787C55.1 67.1105 54.5676 68.1095 54.1683 68.7036C53.1031 70.2882 51.4585 72.5157 49.5981 73.1817C48.695 73.5049 47.9494 73.2812 47.042 73.3724C46.4213 73.4348 45.1344 74.0018 44.6947 73.9259C44.301 73.858 43.4643 72.7584 43.3898 72.3934C43.3553 72.2251 43.5105 72.0288 43.5243 71.7893C43.5731 70.9453 42.9894 70.6476 42.6408 69.9984C42.3721 69.4978 42.2472 68.8362 41.9999 68.3773C41.5903 67.6175 41.2678 67.3487 40.9924 66.3956C40.6442 65.1907 40.7332 63.4468 40.3006 62.4824C39.2486 60.1367 37.651 59.0968 38.7933 56.1562C39.1204 55.314 39.8679 54.7731 39.9624 53.8513C40.2324 51.2156 37.9984 48.5377 36.5841 46.5674C35.8297 45.5163 36.351 45.2807 36.628 44.2155C36.9469 42.9893 37.1796 41.3573 35.4694 41.219C34.8912 41.1722 34.161 41.5481 33.7247 41.3489C33.3771 41.1903 33.3326 40.7673 33.1316 40.4868C32.2392 39.2425 30.3435 39.8097 29.164 40.3061C28.4473 40.6079 28.0731 40.997 27.2253 41.0165C26.4536 41.0343 25.5273 40.6656 24.8159 40.7227C24.2185 40.7706 23.6904 41.2861 23.0378 41.2957C22.2535 41.3072 20.5445 40.163 19.9268 39.6344C18.7682 38.6426 18.2931 36.9334 17.2221 35.7952C16.8319 35.3805 16.465 35.4072 16.214 35.1876C15.9899 34.9916 16.084 34.6754 16.0132 34.4189C15.9304 34.1185 15.5607 33.3505 15.5605 33.1705C15.5603 32.8674 15.8474 32.6155 15.9513 32.3447C16.3229 31.3764 16.5674 29.9437 16.238 28.9429C16.1514 28.6798 15.8751 28.4522 15.8245 28.2252C15.6003 27.2212 16.3095 26.1086 16.7925 25.2686C17.1506 24.6459 18.4429 22.4986 18.8754 22.1003C19.071 21.9201 19.755 21.7401 20.0823 21.5298C20.5098 21.255 21.3862 20.3299 21.4387 19.8304C21.4579 19.6479 21.3205 19.3968 21.3181 19.1943C21.311 18.6012 21.8342 17.4025 22.3881 17.1302C22.6171 17.0177 22.8524 17.0213 23.0705 16.9239C23.9629 16.5251 24.1998 14.9508 24.4527 14.8286C24.7005 14.7089 25.8297 15.2485 26.2128 15.3325C27.7911 15.6785 27.8029 14.9941 29.0008 14.4523C29.9285 14.0328 31.5508 13.71 32.5677 13.6567C33.5972 13.6027 34.4624 13.8193 35.5382 13.6379C36.3613 13.4991 36.8043 12.982 37.4451 13.7951C37.8397 14.2956 37.9777 14.8933 37.7164 15.4929C37.5142 15.9569 36.5 16.5817 37.3778 17.013C38.4103 17.5203 39.5982 17.2278 40.4665 17.6406C41.126 17.954 41.2063 18.7792 41.9381 19.0773C42.1074 19.1462 42.3044 19.1276 42.4607 19.2011C43.0071 19.4583 43.9687 20.2484 44.5645 19.6752C45.0816 19.1775 44.4331 18.118 45.4814 17.6836C46.4412 17.2858 46.7935 17.7587 47.5586 18.0618C47.97 18.2248 48.3864 18.3745 48.8082 18.5087C49.6841 18.7875 51.7022 19.4612 52.5162 19.386C53.4204 19.3025 54.4696 18.6988 55.3712 19.0551C55.9975 19.3026 56.5588 20.1364 56.5299 20.8112C56.5008 21.4921 55.6866 22.3511 55.8325 22.9511C56.5389 24.4422 57.8116 25.8373 58.185 27.4708C58.3658 28.2616 58.2598 28.9786 58.7871 29.6964C59.0085 29.9978 59.4117 30.2291 59.6116 30.5684C59.922 31.0955 59.9314 31.9056 60.2528 32.4317C60.5236 32.8749 61.1894 33.1478 61.5874 33.4808H61.5875Z" fill="black"/>
</mask>
<g mask="url(#mask0_93_463)">
<path d="M59.2507 84.6071L-3.84795 45.6251L-2.95487 44.1795L60.1438 83.1615L59.2507 84.6071ZM61.292 81.303L-1.8067 42.321L-0.914132 40.8763L62.1845 79.8582L61.292 81.303ZM63.3327 77.9997L0.234042 39.0178L1.12661 37.573L64.2253 76.5549L63.3327 77.9997ZM65.3734 74.6964L2.27395 35.714L3.16703 34.2684L66.2665 73.2508L65.3734 74.6964ZM67.4142 71.3932L4.31552 32.4112L5.2086 30.9656L68.3073 69.9476L67.4142 71.3932ZM69.4554 68.0891L6.35595 29.1066L7.24851 27.6618L70.348 66.6443L69.4554 68.0891ZM71.4962 64.7858L8.39669 25.8033L9.28926 24.3586L72.3887 63.341L71.4962 64.7858ZM73.5369 61.4825L10.4374 22.5001L11.33 21.0553L74.4295 60.0378L73.5369 61.4825ZM75.5777 58.1792L12.4782 19.1968L13.3713 17.7512L76.4707 56.7336L75.5777 58.1792ZM77.6184 54.876L14.5189 15.8935L15.412 14.4479L78.5115 53.4304L77.6184 54.876ZM79.6588 51.5714L16.5602 12.5894L17.4527 11.1446L80.5514 50.1266L79.6588 51.5714ZM81.7004 48.2686L18.6009 9.28613L19.4935 7.84136L82.593 46.8238L81.7004 48.2686ZM83.7403 44.9648L20.6416 5.98286L21.5347 4.53726L84.6334 43.5192L83.7403 44.9648ZM85.781 41.6615L22.6824 2.67959L23.5755 1.23399L86.6741 40.2159L85.781 41.6615ZM87.8218 38.3583L24.7231 -0.623687L25.6162 -2.06928L88.7149 36.9127L87.8218 38.3583Z" fill="white"/>
</g>
<path d="M42.3506 4.61115C62.7907 4.61129 79.3604 21.1817 79.3604 41.6219C79.3601 62.0619 62.7906 78.6315 42.3506 78.6317C21.9105 78.6317 5.34005 62.062 5.33984 41.6219C5.33984 21.1816 21.9103 4.61115 42.3506 4.61115ZM42.3506 6.31037C22.8486 6.31037 7.03906 22.1199 7.03906 41.6219C7.03927 61.1237 22.8487 76.9334 42.3506 76.9334C61.8524 76.9333 77.6619 61.1236 77.6621 41.6219C77.6621 22.12 61.8525 6.31051 42.3506 6.31037ZM35.5381 13.6385C36.3611 13.4997 36.8045 12.9827 37.4453 13.7957C37.8395 14.2962 37.9771 14.8936 37.7158 15.493C37.5136 15.957 36.5001 16.5822 37.3779 17.0135C38.4101 17.5204 39.5977 17.2281 40.4658 17.6404C41.1251 17.9538 41.2061 18.7787 41.9375 19.077C42.1066 19.1458 42.3038 19.1277 42.46 19.201C42.9892 19.4501 43.9082 20.1994 44.5068 19.7254L44.5645 19.6756C45.0653 19.1935 44.4723 18.1839 45.3877 17.7264L45.4814 17.6834C46.4409 17.286 46.7937 17.7592 47.5586 18.0623C47.9697 18.2252 48.386 18.3744 48.8076 18.5086C49.6561 18.7787 51.5773 19.4201 52.4365 19.3914L52.5156 19.3865C53.4199 19.303 54.4696 18.6992 55.3711 19.0555C55.9973 19.3032 56.5581 20.1366 56.5293 20.8113L56.5244 20.8758C56.4503 21.5456 55.6911 22.3698 55.832 22.951C56.5384 24.4421 57.8112 25.838 58.1846 27.4715C58.3652 28.262 58.26 28.9785 58.7871 29.6961C59.0085 29.9974 59.4114 30.229 59.6113 30.5682C59.9217 31.0952 59.9315 31.9054 60.2529 32.4315C60.5237 32.8747 61.189 33.1483 61.5869 33.4813L61.6748 33.5565C62.1359 33.965 62.9118 34.8049 63.1396 35.2811C63.3762 35.7754 63.2572 36.2653 63.8779 36.4822C64.6888 36.7653 65.9674 36.5073 66.9072 36.2742L67.2871 36.1776C67.5897 36.099 69.3666 35.4706 69.4512 35.5535L69.4316 35.7293C69.211 37.5421 68.3197 39.3696 67.2549 40.8309L67.1699 40.9451C65.3821 43.3221 62.9296 44.2509 61.1787 46.6307L61.0908 46.7547C60.6074 47.4491 59.5555 49.2039 59.7266 49.8358C59.8167 50.168 60.1291 50.1552 60.165 50.3807C60.199 50.5958 60.0059 50.9081 59.9932 51.1854C59.9732 51.6201 60.1951 52.3236 60.4482 52.6756C60.5846 52.8652 60.9189 53.0521 60.9727 53.1404L60.9834 53.1619C61.0875 53.3999 60.9539 54.2437 60.9648 54.5828C61.0016 55.7157 61.4853 56.6586 60.6777 57.6824L60.6309 57.7401C60.1415 58.319 59.5462 58.4022 58.9238 58.7557L58.7871 58.8377C58.045 59.2957 56.4714 60.5051 56.5273 61.2752C56.5452 61.5184 56.7507 61.9168 56.8086 62.2127C56.9835 63.1069 57.3122 64.3581 56.3906 64.9481C56.0509 65.1655 55.1035 65.3728 54.917 65.6561C54.7009 65.9849 54.9433 66.1101 54.9854 66.3787C55.0998 67.1105 54.5673 68.1099 54.168 68.7039C53.1028 70.2886 51.458 72.5155 49.5977 73.1815L49.5137 73.2108C48.6481 73.4915 47.9208 73.2846 47.042 73.3729L46.9814 73.3797C46.3619 73.4667 45.1988 73.9658 44.7383 73.9315L44.6943 73.9256C44.3005 73.8573 43.4642 72.7583 43.3896 72.3934C43.3554 72.2253 43.5105 72.0291 43.5244 71.7899C43.5716 70.9722 43.0249 70.6669 42.6738 70.0584L42.6406 69.9988C42.3886 69.5296 42.2635 68.9183 42.0449 68.4656L42 68.3778C41.6161 67.6655 41.3078 67.3846 41.0439 66.5672L40.9922 66.3953C40.6551 65.2281 40.7272 63.5552 40.3389 62.575L40.2998 62.4822C39.2478 60.1369 37.6508 59.0965 38.793 56.1561C39.1201 55.3141 39.8674 54.7732 39.9619 53.8514C40.215 51.3805 38.2672 48.8725 36.8574 46.9451L36.584 46.5672C35.8298 45.5163 36.3509 45.2808 36.6279 44.2156C36.9468 42.9895 37.1788 41.3579 35.4688 41.2195C34.8908 41.173 34.1608 41.5482 33.7246 41.3494C33.377 41.1907 33.3319 40.7675 33.1309 40.4871C32.2386 39.2431 30.3436 39.8101 29.1641 40.3065C28.4473 40.6082 28.0724 40.9969 27.2246 41.0164C26.453 41.0341 25.5266 40.6655 24.8154 40.7225C24.2181 40.7705 23.6896 41.2861 23.0371 41.2957L22.9609 41.2938C22.1995 41.2401 20.7308 40.2825 20.0547 39.7401L19.9268 39.6346C18.7681 38.6429 18.2926 36.9339 17.2217 35.7957C16.8315 35.381 16.4649 35.4069 16.2139 35.1873C16.004 35.0036 16.0732 34.7143 16.0244 34.4676L16.0127 34.4188C15.9297 34.1182 15.5609 33.3509 15.5605 33.1707C15.5604 32.8676 15.8473 32.6152 15.9512 32.3445C16.3227 31.3762 16.5667 29.9438 16.2373 28.9432C16.1507 28.6802 15.8749 28.4523 15.8242 28.2254C15.6281 27.3469 16.1463 26.3849 16.6025 25.5955L16.792 25.2694C17.1501 24.6467 18.4425 22.4988 18.875 22.1004C19.0585 21.9315 19.6711 21.7628 20.0166 21.5692L20.082 21.5301C20.5095 21.2553 21.3856 20.3304 21.4385 19.8309C21.4565 19.6599 21.3364 19.4283 21.3193 19.2332L21.3174 19.1942C21.3105 18.601 21.8339 17.4031 22.3877 17.1307C22.6166 17.0181 22.8523 17.0211 23.0703 16.9236C23.9622 16.5247 24.1994 14.952 24.4521 14.8289C24.6999 14.7092 25.8298 15.2488 26.2129 15.3328C27.7415 15.6678 27.8004 15.036 28.8916 14.5037L29 14.4529C29.8696 14.0596 31.3506 13.7507 32.3701 13.6697L32.5674 13.657C33.5646 13.6048 34.4078 13.8063 35.4375 13.6541L35.5381 13.6385ZM35.7246 15.3279C35.0408 15.433 34.4409 15.4168 33.9482 15.3914C33.3977 15.363 33.0559 15.3324 32.6562 15.3533C31.8403 15.3961 30.5574 15.6552 29.8369 15.9422L29.7002 16.0008C29.5298 16.0779 29.3982 16.1602 29.251 16.2625C29.1498 16.3328 28.8496 16.5571 28.5781 16.7088C28.2323 16.9021 27.8221 17.0577 27.3135 17.1082C26.8356 17.1556 26.3491 17.1017 25.8486 16.992L25.6582 16.9432C25.5993 16.9261 25.5458 16.9089 25.502 16.8944C25.4575 16.8796 25.4125 16.8642 25.3682 16.8485C25.267 17.0422 25.1439 17.2509 24.9941 17.4539C24.7361 17.8036 24.3412 18.2168 23.7627 18.4754C23.6017 18.5473 23.4558 18.593 23.3447 18.6229C23.311 18.6319 23.2767 18.6397 23.2451 18.6473C23.2217 18.6863 23.1956 18.7334 23.1689 18.7879C23.1115 18.9057 23.0668 19.0253 23.0391 19.1229C23.0561 19.1845 23.0782 19.2677 23.0957 19.3572C23.1218 19.491 23.1576 19.7268 23.1279 20.0086C23.0758 20.5032 22.8598 20.9103 22.7236 21.1385C22.5647 21.4048 22.3741 21.6537 22.1943 21.8651C21.8576 22.2609 21.4076 22.6977 21 22.9598C20.8028 23.0864 20.6 23.1796 20.4609 23.2401C20.3157 23.3033 20.1602 23.3646 20.0557 23.4061C20.0186 23.4208 19.9867 23.4339 19.959 23.4451C19.922 23.4942 19.8713 23.5615 19.8076 23.6522C19.6415 23.8886 19.4445 24.1898 19.2402 24.5115C18.8322 25.1542 18.4318 25.8254 18.2646 26.116C17.9894 26.5946 17.7687 26.9556 17.6133 27.3328C17.5464 27.4952 17.5105 27.6206 17.4932 27.7137C17.5215 27.7547 17.5522 27.801 17.582 27.8485C17.6512 27.9585 17.7434 28.1199 17.8193 28.3221L17.8516 28.4119L17.8984 28.5662C18.1205 29.3389 18.1216 30.1526 18.0459 30.8416C17.9631 31.5955 17.7734 32.3382 17.5371 32.9539C17.4917 33.0721 17.44 33.1771 17.3926 33.2645C17.4242 33.3416 17.4581 33.4239 17.4873 33.4979C17.5331 33.6137 17.6027 33.7948 17.6504 33.9676C17.6548 33.9836 17.6591 33.9997 17.6631 34.0154C17.8819 34.1349 18.1313 34.3026 18.3809 34.5506L18.459 34.6317C19.1635 35.3805 19.6584 36.3023 20.0156 36.9256C20.4233 37.637 20.7039 38.0633 21.0312 38.3436C21.2505 38.5312 21.7461 38.8925 22.2744 39.2C22.5344 39.3513 22.7661 39.4681 22.9473 39.5418C22.9791 39.5547 23.0065 39.5648 23.0293 39.5731C23.071 39.5558 23.1332 39.5289 23.2217 39.4871C23.3362 39.4331 23.5507 39.3296 23.7686 39.2459C23.9992 39.1573 24.3111 39.0587 24.6797 39.0291L24.7988 39.0223C25.3946 38.9958 25.9886 39.1217 26.3291 39.1893C26.8056 39.2839 27.0266 39.3218 27.1855 39.3182C27.3135 39.3152 27.3835 39.2955 27.5146 39.2332C27.6139 39.186 27.6991 39.1383 27.8809 39.0418C28.044 38.9551 28.255 38.8462 28.5049 38.741L28.7607 38.6356C29.3924 38.3856 30.2525 38.1074 31.1436 38.0486C32.1788 37.9805 33.5855 38.2055 34.5117 39.4969C34.5364 39.5312 34.5593 39.5659 34.5811 39.5994C34.6344 39.5893 34.6885 39.5796 34.7402 39.5711C34.9554 39.536 35.2643 39.4985 35.6064 39.5262C36.3067 39.5829 36.9957 39.8108 37.5508 40.3084C38.1048 40.8052 38.3648 41.4273 38.4746 41.9764C38.6744 42.9754 38.4304 44.0322 38.2715 44.6434C38.1731 45.0215 38.0534 45.3203 37.9727 45.5203C37.9663 45.5361 37.9616 45.5516 37.9561 45.5653C37.9587 45.569 37.9611 45.5731 37.9639 45.577L38.2227 45.9334C38.8607 46.8045 39.7179 47.9422 40.3848 49.1258C41.1255 50.4406 41.7967 52.0809 41.667 53.8524L41.6523 54.0242C41.5604 54.9211 41.1462 55.5791 40.874 55.9832C40.549 56.4659 40.451 56.5809 40.377 56.7713C39.9621 57.8394 40.0762 58.3775 40.2891 58.8826C40.43 59.217 40.6289 59.5564 40.9229 60.0535C41.2004 60.5229 41.5437 61.1037 41.8506 61.7879C42.1977 62.5621 42.2985 63.5245 42.3672 64.1688C42.4507 64.9527 42.5022 65.5017 42.624 65.9236C42.7174 66.2468 42.806 66.4216 42.9082 66.5945C42.9762 66.7096 43.0373 66.8026 43.1475 66.9783C43.2489 67.1401 43.3678 67.3349 43.4951 67.5711C43.702 67.9549 43.8412 68.3881 43.9229 68.6317C44.0271 68.9425 44.0832 69.0936 44.1377 69.1951C44.1582 69.2332 44.1923 69.2862 44.2734 69.3904C44.3254 69.4573 44.4986 69.6702 44.6211 69.8445C44.9397 70.2982 45.2525 70.9304 45.2236 71.8026L45.2197 71.8875C45.2152 71.9659 45.2068 72.0397 45.1963 72.1082C45.2291 72.0983 45.264 72.089 45.2998 72.0779C45.503 72.0153 45.7723 71.9291 46.0127 71.8611C46.2406 71.7967 46.5589 71.7139 46.8721 71.6824L46.9805 71.6727C47.5254 71.6291 48.088 71.6633 48.3379 71.6658C48.6655 71.6691 48.8476 71.6455 49.0254 71.5819C49.5761 71.3846 50.2284 70.8946 50.9346 70.1326C51.6202 69.3929 52.2393 68.527 52.7578 67.7557C52.9145 67.5226 53.0834 67.2296 53.1953 66.9539C53.2395 66.8451 53.2676 66.7558 53.2842 66.6883C53.276 66.6679 53.267 66.6464 53.2588 66.6238C53.179 66.4059 53.0971 66.0776 53.1426 65.6776C53.187 65.2875 53.3366 64.9668 53.498 64.7215C53.668 64.4633 53.869 64.2923 54.0029 64.1922C54.1446 64.0863 54.2836 64.0063 54.3936 63.949C54.6084 63.8372 54.8344 63.7491 54.9951 63.6883C55.1464 63.6311 55.2265 63.6013 55.3105 63.5701C55.3066 63.4775 55.2941 63.3591 55.2695 63.2078C55.235 62.9956 55.1955 62.8162 55.1445 62.5565C55.1429 62.5509 55.1386 62.5366 55.1309 62.5135C55.1126 62.4587 55.0926 62.4044 55.0566 62.3055C55.0263 62.2222 54.981 62.0968 54.9424 61.9666C54.9112 61.8616 54.8648 61.6903 54.8418 61.4881L54.833 61.4002C54.7742 60.5986 55.1556 59.9546 55.3877 59.6199C55.658 59.2302 55.9982 58.8801 56.3076 58.5965C56.9252 58.0304 57.6427 57.5304 58.085 57.2791C58.3219 57.1445 58.5439 57.0431 58.7158 56.9676C58.9111 56.8818 59.0042 56.8438 59.1133 56.7908C59.2719 56.7138 59.3083 56.6769 59.3447 56.6307C59.4101 56.5477 59.4234 56.502 59.4287 56.4822C59.4364 56.4536 59.448 56.3923 59.4414 56.2567C59.4338 56.1015 59.4091 55.9347 59.3672 55.6434C59.3294 55.3812 59.2792 55.025 59.2666 54.6375C59.2632 54.5321 59.2661 54.4312 59.2695 54.3533C59.2731 54.2721 59.2788 54.19 59.2842 54.116C59.2891 54.048 59.2927 53.9902 59.2969 53.9373C59.225 53.8633 59.1452 53.7732 59.0693 53.6678C58.7975 53.2899 58.6109 52.8377 58.4951 52.4627C58.3807 52.0921 58.2733 51.5972 58.2959 51.1072L58.3018 51.0184C58.3071 50.9545 58.3153 50.8935 58.3242 50.8367C58.2249 50.6712 58.1427 50.4864 58.0869 50.2811C57.8985 49.5867 58.1016 48.9102 58.2031 48.6014C58.3369 48.1946 58.5284 47.7801 58.7148 47.4188C59.0879 46.6958 59.5437 45.9866 59.8105 45.6238C60.8578 44.2004 62.1121 43.2333 63.1631 42.41C64.2496 41.5588 65.1422 40.8448 65.8818 39.8299C66.2993 39.257 66.6727 38.638 66.9766 38.0037C66.6194 38.0862 66.2176 38.1686 65.8096 38.2254C65.157 38.3162 64.2401 38.3832 63.3984 38.1131L63.3174 38.0858C62.9495 37.9572 62.5958 37.7524 62.3008 37.4412C62.0109 37.1355 61.8579 36.8108 61.7695 36.5692C61.6964 36.369 61.6375 36.1279 61.626 36.0848C61.615 36.0437 61.6079 36.0211 61.6045 36.0106C61.5931 35.9921 61.5605 35.9415 61.4961 35.8553C61.4098 35.7399 61.2976 35.6026 61.1689 35.4578C60.936 35.1957 60.7021 34.965 60.5547 34.8338L60.4971 34.784C60.3947 34.6984 60.3305 34.6759 59.9355 34.4149C59.6753 34.2428 59.1517 33.8885 58.8027 33.3172C58.4783 32.7861 58.3441 32.1764 58.2773 31.9022C58.2334 31.7214 58.2057 31.611 58.1758 31.5154C58.1685 31.4922 58.1613 31.4738 58.1562 31.4598C58.1374 31.4418 58.1104 31.4168 58.0713 31.3817C58.0172 31.3331 57.9024 31.2324 57.8027 31.1365C57.6961 31.0339 57.5536 30.8866 57.418 30.702C56.9415 30.0533 56.7679 29.4106 56.6807 28.8934C56.6417 28.6624 56.6137 28.4145 56.5947 28.2625C56.5727 28.0866 56.5539 27.9615 56.5283 27.8494C56.4069 27.3184 56.122 26.7594 55.6846 26.0457C55.2958 25.4115 54.7022 24.5341 54.2969 23.6785L54.2227 23.5213L54.1816 23.3524C54.0393 22.7667 54.1586 22.2509 54.2578 21.9412C54.3593 21.6246 54.5053 21.3324 54.5986 21.1473C54.6963 20.9536 54.7537 20.8421 54.7988 20.742C54.7934 20.7328 54.7879 20.7227 54.7812 20.7127C54.7624 20.6843 54.7424 20.6608 54.7256 20.6424C54.6686 20.6448 54.5508 20.6573 54.3398 20.7078C54.108 20.7633 53.9673 20.8086 53.6475 20.8924C53.3858 20.961 53.0409 21.0438 52.6719 21.0779C52.2317 21.1185 51.7676 21.0551 51.416 20.992C51.0314 20.923 50.6232 20.824 50.2412 20.7205C49.8606 20.6174 49.4774 20.502 49.1377 20.3963L48.293 20.1278C47.8312 19.9808 47.3776 19.8177 46.9326 19.6414L46.6807 19.533C46.6019 19.4968 46.5284 19.4613 46.4629 19.4285C46.4603 19.447 46.4581 19.4664 46.4551 19.4852C46.3977 19.8418 46.2451 20.4152 45.7422 20.8992L45.5381 21.077C44.5066 21.8851 43.3302 21.5199 42.8457 21.3201C42.5443 21.1958 42.2727 21.0424 42.0898 20.9373C41.9806 20.8745 41.9075 20.8324 41.8555 20.8026C41.8181 20.7965 41.7745 20.789 41.7305 20.7801C41.6222 20.7581 41.4683 20.721 41.2969 20.6512C40.4121 20.2908 39.9618 19.5992 39.7744 19.326C39.7159 19.2407 39.6736 19.1824 39.6455 19.1444C39.5337 19.1175 39.3255 19.0937 38.8506 19.0565C38.3501 19.0172 37.5251 18.9566 36.707 18.576L36.6279 18.5379C36.1848 18.3201 35.5383 17.8593 35.3652 16.991C35.2087 16.2052 35.5568 15.5942 35.7051 15.3592C35.7116 15.3489 35.7179 15.3382 35.7246 15.3279Z" fill="white"/>
<path d="M26.9375 33.0055H23.5391V28.3942H26.9375V33.0055ZM41.7412 33.0055H38.3438V28.3942H41.7412V33.0055ZM32.5195 31.7927H29.1211V27.1813H32.5195V31.7927ZM20.6279 24.2634V29.8513L15.2891 26.4587V20.8718L20.6279 24.2634ZM38.8291 26.696H35.4316V22.0847H38.8291V26.696ZM30.335 13.5905V23.6901L20.3848 17.5007V7.40203L30.335 13.5905Z" fill="#14181D"/>
<path d="M16.3828 7.8677L24.6343 12.9839L18.4457 19.9012L12.6211 16.4838L16.3828 7.8677Z" fill="#14181D"/>
<path d="M30.1629 19.0047L29.1424 20.6565L7.25691 7.13573L8.27734 5.48399L30.1629 19.0047Z" fill="white"/>
<path d="M30.5801 18.623V22.3271L27.9102 20.6934V16.9883L30.5801 18.623ZM14.3193 8.50391V12.377L11.6504 10.668V6.79492L14.3193 8.50391ZM8.98047 3.64062V11.8916L3.15527 8.25195V0L8.98047 3.64062Z" fill="#14181D"/>
<path d="M3.88379 9.70767L18.0812 17.4738L13.3487 27.1814L3.88379 21.2519V9.70767Z" fill="#14181D"/>
<path d="M16.0056 23.38L14.9852 25.0317L0.945387 16.358L1.96582 14.7063L16.0056 23.38Z" fill="white"/>
<path d="M16.3809 23.5411L15.2891 26.3321L14.4395 25.9678V22.3272L16.3809 23.5411ZM8.49414 13.918V26.211L0 20.7872V8.49418L8.49414 13.918Z" fill="#14181D"/>
<path d="M67.9541 83.243L47.8108 70.9871V63.949L67.226 75.8409L67.9541 83.243Z" fill="#14181D"/>
<path d="M51.4512 70.4224V68.1401L62.6152 75.0376V77.3198L51.4512 70.4224ZM65.042 78.8189V76.5366L67.4688 78.0357V80.3179L65.042 78.8189Z" fill="white"/>
<path d="M128.098 55.3743C127.845 55.3743 127.599 55.3413 127.358 55.2753C127.117 55.2092 126.925 55.1258 126.781 55.0248L127.061 54.4715C127.201 54.5647 127.368 54.6404 127.562 54.6986C127.76 54.753 127.954 54.7802 128.144 54.7802C128.579 54.7802 128.797 54.6656 128.797 54.4365C128.797 54.3278 128.74 54.2521 128.628 54.2094C128.519 54.1666 128.342 54.1259 128.098 54.087C127.841 54.0482 127.632 54.0036 127.469 53.9531C127.309 53.9026 127.17 53.8152 127.049 53.691C126.933 53.5628 126.874 53.3862 126.874 53.1609C126.874 52.8658 126.997 52.6309 127.241 52.4562C127.49 52.2775 127.824 52.1882 128.243 52.1882C128.457 52.1882 128.67 52.2135 128.884 52.2639C129.097 52.3105 129.272 52.3746 129.408 52.4562L129.129 53.0095C128.865 52.8542 128.567 52.7765 128.237 52.7765C128.024 52.7765 127.861 52.8095 127.748 52.8755C127.639 52.9377 127.585 53.0211 127.585 53.126C127.585 53.2425 127.643 53.326 127.76 53.3764C127.88 53.423 128.065 53.4677 128.313 53.5104C128.562 53.5492 128.765 53.5939 128.925 53.6444C129.084 53.6949 129.22 53.7803 129.332 53.9007C129.449 54.021 129.507 54.1919 129.507 54.4132C129.507 54.7044 129.381 54.9374 129.129 55.1122C128.876 55.2869 128.533 55.3743 128.098 55.3743Z" fill="white"/>
<path d="M126.437 53.7958C126.437 53.8463 126.433 53.9181 126.425 54.0113H123.985C124.028 54.2404 124.138 54.4229 124.317 54.5588C124.499 54.6909 124.725 54.7569 124.993 54.7569C125.334 54.7569 125.616 54.6443 125.837 54.419L126.227 54.8675C126.088 55.0345 125.911 55.1607 125.697 55.2461C125.484 55.3316 125.243 55.3743 124.975 55.3743C124.633 55.3743 124.332 55.3063 124.072 55.1704C123.812 55.0345 123.61 54.8462 123.467 54.6054C123.327 54.3608 123.257 54.0851 123.257 53.7783C123.257 53.4755 123.325 53.2036 123.461 52.9629C123.6 52.7183 123.793 52.528 124.037 52.3921C124.282 52.2562 124.558 52.1882 124.864 52.1882C125.167 52.1882 125.437 52.2562 125.674 52.3921C125.915 52.5241 126.101 52.7124 126.233 52.9571C126.369 53.1978 126.437 53.4774 126.437 53.7958ZM124.864 52.7707C124.631 52.7707 124.433 52.8406 124.27 52.9804C124.111 53.1163 124.014 53.2988 123.979 53.5279H125.744C125.713 53.3027 125.618 53.1202 125.459 52.9804C125.299 52.8406 125.101 52.7707 124.864 52.7707Z" fill="white"/>
<path d="M121.829 52.223H122.558V55.3333H121.829V52.223ZM122.196 51.7104C122.064 51.7104 121.954 51.6696 121.864 51.5881C121.775 51.5027 121.73 51.3978 121.73 51.2736C121.73 51.1493 121.775 51.0464 121.864 50.9649C121.954 50.8794 122.064 50.8367 122.196 50.8367C122.328 50.8367 122.439 50.8775 122.528 50.959C122.618 51.0367 122.662 51.1357 122.662 51.2561C122.662 51.3842 122.618 51.493 122.528 51.5823C122.443 51.6677 122.332 51.7104 122.196 51.7104Z" fill="white"/>
<path d="M120.873 52.2232V54.8617C120.873 55.9567 120.313 56.5042 119.195 56.5042C118.896 56.5042 118.613 56.4654 118.345 56.3878C118.077 56.314 117.855 56.2052 117.681 56.0616L118.007 55.5141C118.143 55.6267 118.314 55.716 118.519 55.782C118.729 55.8519 118.941 55.8868 119.154 55.8868C119.496 55.8868 119.747 55.8092 119.906 55.6539C120.065 55.4985 120.145 55.2617 120.145 54.9433V54.7802C120.02 54.9161 119.869 55.019 119.69 55.0889C119.512 55.1588 119.316 55.1937 119.102 55.1937C118.807 55.1937 118.539 55.1316 118.298 55.0073C118.061 54.8792 117.873 54.7006 117.733 54.4715C117.597 54.2424 117.529 53.9803 117.529 53.6851C117.529 53.39 117.597 53.1299 117.733 52.9047C117.873 52.6756 118.061 52.4989 118.298 52.3746C118.539 52.2504 118.807 52.1882 119.102 52.1882C119.327 52.1882 119.531 52.2251 119.714 52.2989C119.9 52.3727 120.055 52.4853 120.179 52.6367V52.2232H120.873ZM119.213 54.5763C119.488 54.5763 119.714 54.4948 119.888 54.3317C120.067 54.1647 120.156 53.9492 120.156 53.6851C120.156 53.425 120.067 53.2134 119.888 53.0503C119.714 52.8872 119.488 52.8056 119.213 52.8056C118.933 52.8056 118.704 52.8872 118.525 53.0503C118.351 53.2134 118.263 53.425 118.263 53.6851C118.263 53.9492 118.351 54.1647 118.525 54.3317C118.704 54.4948 118.933 54.5763 119.213 54.5763Z" fill="white"/>
<path d="M115.43 55.3743C115.115 55.3743 114.832 55.3063 114.579 55.1704C114.327 55.0345 114.129 54.8462 113.985 54.6054C113.845 54.3608 113.775 54.0851 113.775 53.7783C113.775 53.4716 113.845 53.1978 113.985 52.9571C114.129 52.7163 114.327 52.528 114.579 52.3921C114.832 52.2562 115.115 52.1882 115.43 52.1882C115.748 52.1882 116.033 52.2562 116.286 52.3921C116.538 52.528 116.734 52.7163 116.874 52.9571C117.018 53.1978 117.09 53.4716 117.09 53.7783C117.09 54.0851 117.018 54.3608 116.874 54.6054C116.734 54.8462 116.538 55.0345 116.286 55.1704C116.033 55.3063 115.748 55.3743 115.43 55.3743ZM115.43 54.751C115.698 54.751 115.919 54.6617 116.094 54.4831C116.268 54.3045 116.356 54.0696 116.356 53.7783C116.356 53.4871 116.268 53.2522 116.094 53.0736C115.919 52.8949 115.698 52.8056 115.43 52.8056C115.162 52.8056 114.94 52.8949 114.766 53.0736C114.595 53.2522 114.509 53.4871 114.509 53.7783C114.509 54.0696 114.595 54.3045 114.766 54.4831C114.94 54.6617 115.162 54.751 115.43 54.751Z" fill="white"/>
<path d="M112.347 51.0116H113.075V55.3334H112.347V51.0116Z" fill="white"/>
<path d="M109.991 55.3743C109.677 55.3743 109.393 55.3063 109.141 55.1704C108.888 55.0345 108.69 54.8462 108.547 54.6054C108.407 54.3608 108.337 54.0851 108.337 53.7783C108.337 53.4716 108.407 53.1978 108.547 52.9571C108.69 52.7163 108.888 52.528 109.141 52.3921C109.393 52.2562 109.677 52.1882 109.991 52.1882C110.31 52.1882 110.595 52.2562 110.847 52.3921C111.1 52.528 111.296 52.7163 111.436 52.9571C111.579 53.1978 111.651 53.4716 111.651 53.7783C111.651 54.0851 111.579 54.3608 111.436 54.6054C111.296 54.8462 111.1 55.0345 110.847 55.1704C110.595 55.3063 110.31 55.3743 109.991 55.3743ZM109.991 54.751C110.259 54.751 110.48 54.6617 110.655 54.4831C110.83 54.3045 110.917 54.0696 110.917 53.7783C110.917 53.4871 110.83 53.2522 110.655 53.0736C110.48 52.8949 110.259 52.8056 109.991 52.8056C109.723 52.8056 109.502 52.8949 109.327 53.0736C109.156 53.2522 109.071 53.4871 109.071 53.7783C109.071 54.0696 109.156 54.3045 109.327 54.4831C109.502 54.6617 109.723 54.751 109.991 54.751Z" fill="white"/>
<path d="M106.342 52.1882C106.734 52.1882 107.049 52.3028 107.286 52.5319C107.522 52.761 107.641 53.1007 107.641 53.5512V55.3335H106.913V53.6444C106.913 53.3726 106.849 53.1687 106.721 53.0328C106.592 52.893 106.41 52.8231 106.173 52.8231C105.905 52.8231 105.694 52.9047 105.538 53.0677C105.383 53.2269 105.305 53.458 105.305 53.7609V55.3335H104.577V52.2232H105.27V52.6251C105.391 52.4814 105.542 52.3727 105.725 52.2989C105.907 52.2251 106.113 52.1882 106.342 52.1882Z" fill="white"/>
<path d="M102.356 52.1882C102.748 52.1882 103.062 52.3027 103.299 52.5318C103.536 52.7609 103.655 53.1007 103.655 53.5511V55.3334H102.926V53.6443C102.926 53.3725 102.862 53.1686 102.734 53.0327C102.606 52.8929 102.424 52.823 102.187 52.823C101.919 52.823 101.707 52.9046 101.552 53.0677C101.397 53.2269 101.319 53.4579 101.319 53.7608V55.3334H100.591V51.0116H101.319V52.5842C101.439 52.4561 101.587 52.359 101.762 52.293C101.94 52.2231 102.138 52.1882 102.356 52.1882Z" fill="white"/>
<path d="M98.6608 55.3743C98.3385 55.3743 98.0493 55.3063 97.793 55.1704C97.5367 55.0345 97.3367 54.8462 97.193 54.6054C97.0494 54.3608 96.9775 54.0851 96.9775 53.7783C96.9775 53.4716 97.0494 53.1978 97.193 52.9571C97.3367 52.7163 97.5348 52.528 97.7872 52.3921C98.0434 52.2562 98.3347 52.1882 98.6608 52.1882C98.9676 52.1882 99.2355 52.2504 99.4646 52.3746C99.6976 52.4989 99.8724 52.6775 99.9888 52.9105L99.4297 53.2367C99.3404 53.093 99.2278 52.9862 99.0919 52.9163C98.9598 52.8425 98.8142 52.8056 98.655 52.8056C98.3832 52.8056 98.158 52.8949 97.9794 53.0736C97.8007 53.2483 97.7114 53.4832 97.7114 53.7783C97.7114 54.0735 97.7988 54.3103 97.9735 54.4889C98.1522 54.6637 98.3793 54.751 98.655 54.751C98.8142 54.751 98.9598 54.7161 99.0919 54.6462C99.2278 54.5724 99.3404 54.4637 99.4297 54.32L99.9888 54.6462C99.8685 54.8792 99.6918 55.0597 99.4588 55.1879C99.2297 55.3121 98.9637 55.3743 98.6608 55.3743Z" fill="white"/>
<path d="M96.5347 53.7958C96.5347 53.8463 96.5308 53.9181 96.5231 54.0113H94.0826C94.1253 54.2404 94.2359 54.4229 94.4146 54.5588C94.5971 54.6909 94.8223 54.7569 95.0902 54.7569C95.4319 54.7569 95.7134 54.6443 95.9348 54.419L96.325 54.8675C96.1852 55.0345 96.0086 55.1607 95.795 55.2461C95.5814 55.3316 95.3407 55.3743 95.0727 55.3743C94.731 55.3743 94.4301 55.3063 94.1699 55.1704C93.9098 55.0345 93.7079 54.8462 93.5642 54.6054C93.4244 54.3608 93.3545 54.0851 93.3545 53.7783C93.3545 53.4755 93.4224 53.2036 93.5584 52.9629C93.6981 52.7183 93.8904 52.528 94.135 52.3921C94.3796 52.2562 94.6553 52.1882 94.9621 52.1882C95.265 52.1882 95.5348 52.2562 95.7717 52.3921C96.0124 52.5241 96.1988 52.7124 96.3309 52.9571C96.4668 53.1978 96.5347 53.4774 96.5347 53.7958ZM94.9621 52.7707C94.7291 52.7707 94.5311 52.8406 94.368 52.9804C94.2088 53.1163 94.1117 53.2988 94.0767 53.5279H95.8416C95.8105 53.3027 95.7154 53.1202 95.5562 52.9804C95.397 52.8406 95.1989 52.7707 94.9621 52.7707Z" fill="white"/>
<path d="M93.1143 55.1644C93.0289 55.2343 92.924 55.2867 92.7998 55.3217C92.6794 55.3566 92.5512 55.3741 92.4153 55.3741C92.0736 55.3741 91.8096 55.2848 91.6232 55.1062C91.4368 54.9275 91.3436 54.6674 91.3436 54.3257V52.8287H90.8311V52.2463H91.3436V51.5357H92.0717V52.2463H92.9046V52.8287H92.0717V54.3082C92.0717 54.4596 92.1086 54.5761 92.1824 54.6577C92.2561 54.7353 92.3629 54.7742 92.5027 54.7742C92.6658 54.7742 92.8017 54.7314 92.9104 54.646L93.1143 55.1644Z" fill="white"/>
<path d="M158.823 47.5673V34.893C158.823 34.2303 158.937 33.7954 159.165 33.5883C159.393 33.3812 159.838 33.2776 160.501 33.2776H174.852V35.9492H163.918V38.9314H173.858V41.5718H163.918V44.8957H174.852V47.5673H158.823Z" fill="white"/>
<path d="M156.081 40.4846C156.081 41.9964 155.905 43.2287 155.552 44.1813C155.221 45.1132 154.693 45.8277 153.968 46.3248C153.264 46.8218 152.363 47.1635 151.266 47.3499C150.168 47.5156 148.853 47.5984 147.32 47.5984C146.388 47.5984 145.498 47.5984 144.649 47.5984C143.8 47.5984 143.002 47.588 142.257 47.5673C141.511 47.5673 140.807 47.5673 140.145 47.5673C139.503 47.5673 138.902 47.5673 138.343 47.5673V35.328C138.343 34.6031 138.488 34.0854 138.778 33.7747C139.068 33.4641 139.606 33.2984 140.393 33.2777C140.931 33.2777 141.511 33.2777 142.133 33.2777C142.775 33.257 143.417 33.2466 144.059 33.2466C144.721 33.2466 145.374 33.2466 146.016 33.2466C146.678 33.2466 147.289 33.2466 147.848 33.2466C149.319 33.2673 150.572 33.3812 151.607 33.5883C152.643 33.7747 153.492 34.1268 154.155 34.6445C154.817 35.1416 155.304 35.8664 155.615 36.819C155.925 37.751 156.081 38.9728 156.081 40.4846ZM143.437 44.989C143.644 44.989 143.883 44.989 144.152 44.989C144.442 44.989 144.742 44.9993 145.053 45.0201C145.384 45.0201 145.705 45.0201 146.016 45.0201C146.326 45.0201 146.596 45.0201 146.823 45.0201C147.548 45.0201 148.169 44.9579 148.687 44.8337C149.205 44.7094 149.619 44.4816 149.93 44.1502C150.24 43.8189 150.468 43.3529 150.613 42.7524C150.758 42.1518 150.831 41.3959 150.831 40.4846C150.831 39.1799 150.696 38.1962 150.427 37.5335C150.178 36.8708 149.754 36.4256 149.153 36.1978C148.573 35.9492 147.755 35.825 146.699 35.825C146.451 35.825 146.13 35.825 145.736 35.825C145.363 35.825 144.991 35.8353 144.618 35.856C144.245 35.856 143.924 35.8664 143.655 35.8871C143.593 35.9907 143.541 36.1149 143.499 36.2599C143.458 36.4049 143.437 36.6119 143.437 36.8812V44.989Z" fill="white"/>
<path d="M129.761 47.5673C129.761 45.4549 129.761 43.3425 129.761 41.2301C129.761 39.1178 129.761 37.0054 129.761 34.893C129.761 34.5409 129.781 34.251 129.823 34.0232C129.885 33.7747 130.03 33.5883 130.258 33.464C130.506 33.3398 130.9 33.2776 131.438 33.2776H134.855V47.5673H129.761Z" fill="white"/>
<path d="M118.444 42.7523C118.444 42.7523 118.237 42.7523 117.823 42.7523C117.43 42.7523 116.922 42.7626 116.301 42.7833C115.68 42.7833 115.038 42.7833 114.375 42.7833V47.5673H109.28V35.1726C109.28 34.572 109.415 34.106 109.684 33.7747C109.953 33.4433 110.502 33.2776 111.331 33.2776C111.641 33.2776 112.107 33.2776 112.728 33.2776C113.35 33.2569 114.064 33.2466 114.872 33.2466C115.68 33.2466 116.508 33.2466 117.357 33.2466C118.227 33.2259 119.055 33.2259 119.842 33.2466C120.629 33.2466 121.313 33.2569 121.892 33.2776C122.493 33.2776 122.928 33.288 123.197 33.3087C124.315 33.4122 125.154 33.754 125.713 34.3338C126.273 34.893 126.552 35.8146 126.552 37.0986C126.552 38.2583 126.459 39.1074 126.273 39.6458C126.107 40.1636 125.827 40.5674 125.434 40.8574C125.289 40.9609 125.092 41.0437 124.844 41.1059C124.595 41.168 124.315 41.1991 124.005 41.1991V41.3233C124.15 41.3233 124.305 41.3233 124.471 41.3233C124.657 41.3233 124.812 41.3337 124.937 41.3544C125.724 41.4994 126.19 41.7996 126.335 42.2553C126.5 42.7109 126.583 43.1872 126.583 43.6842V46.4179C126.583 46.8114 126.625 47.1013 126.707 47.2877C126.79 47.4534 126.842 47.5466 126.863 47.5673H123.073C122.534 47.5673 122.11 47.4844 121.799 47.3188C121.509 47.1531 121.364 46.801 121.364 46.2626V44.2123C121.364 43.5703 121.219 43.1665 120.929 43.0008C120.66 42.8351 120.174 42.7523 119.469 42.7523H118.444ZM114.375 40.3293C114.603 40.3293 114.944 40.3396 115.4 40.3603C115.876 40.3603 116.394 40.3603 116.953 40.3603C117.512 40.3603 118.02 40.3603 118.475 40.3603C118.952 40.3603 119.293 40.3603 119.5 40.3603C119.998 40.3603 120.432 40.205 120.805 39.8944C121.199 39.563 121.395 38.9521 121.395 38.0616C121.395 37.4403 121.281 36.9536 121.054 36.6015C120.847 36.2495 120.495 36.0527 119.998 36.0113C119.708 35.9492 119.314 35.9181 118.817 35.9181C118.341 35.9181 117.833 35.9181 117.295 35.9181C116.777 35.9181 116.301 35.9285 115.866 35.9492C115.431 35.9492 115.11 35.9492 114.903 35.9492C114.862 35.9492 114.758 35.9802 114.592 36.0424C114.447 36.1045 114.375 36.2598 114.375 36.5083V40.3293Z" fill="white"/>
<path d="M90.6279 47.5673V34.893C90.6279 34.2303 90.7418 33.7954 90.9696 33.5883C91.1974 33.3812 91.6427 33.2776 92.3054 33.2776H106.657V35.9492H95.7225V38.9314H105.663V41.5718H95.7225V44.8957H106.657V47.5673H90.6279Z" fill="white"/>
</svg>
