<svg width="192" height="310" viewBox="0 0 192 310" fill="none" xmlns="http://www.w3.org/2000/svg">
<g opacity="0.06">
<mask id="mask0_107_105" style="mask-type:alpha" maskUnits="userSpaceOnUse" x="-9" y="49" width="201" height="226">
<path d="M162.787 124.376C164.432 125.753 167.651 129.176 168.554 131.062C169.433 132.899 168.989 134.718 171.295 135.524C174.738 136.727 180.451 135.303 183.961 134.392C185.084 134.101 191.686 131.766 191.999 132.075C191.321 139.022 187.924 146.074 183.841 151.678C177.175 160.826 167.878 164.244 161.27 173.225C159.687 175.378 155.196 182.629 155.875 185.132C156.21 186.366 157.368 186.317 157.502 187.154C157.63 187.953 156.912 189.114 156.865 190.144C156.79 191.76 157.615 194.373 158.556 195.681C159.063 196.386 160.304 197.082 160.502 197.409C160.962 198.167 160.432 201.465 160.474 202.766C160.611 206.974 162.41 210.478 159.41 214.281C157.56 216.627 155.28 216.913 152.893 218.268C150.436 219.664 143.767 224.576 143.991 227.628C144.057 228.532 144.819 230.011 145.034 231.111C145.684 234.432 146.905 239.078 143.482 241.27C142.22 242.077 138.702 242.847 138.009 243.899C137.204 245.122 138.106 245.587 138.262 246.586C138.687 249.305 136.709 253.016 135.226 255.223C131.269 261.109 125.159 269.384 118.248 271.858C114.893 273.059 112.123 272.228 108.753 272.567C106.447 272.798 101.666 274.904 100.033 274.623C98.5703 274.37 95.4623 270.285 95.1853 268.929C95.0574 268.305 95.6339 267.575 95.6853 266.685C95.8662 263.55 93.6982 262.444 92.4032 260.033C91.4047 258.173 90.941 255.715 90.0221 254.01C88.5008 251.188 87.3025 250.189 86.2794 246.649C84.9862 242.173 85.3166 235.695 83.7098 232.112C79.8017 223.398 73.8669 219.535 78.1102 208.611C79.3254 205.483 82.1021 203.473 82.4532 200.049C83.4562 190.258 75.1574 180.31 69.9036 172.991C67.1011 169.086 69.0375 168.211 70.0666 164.254C71.2511 159.698 72.1157 153.636 65.7626 153.122C63.6147 152.949 60.9019 154.345 59.2813 153.605C57.9899 153.015 57.8249 151.444 57.0779 150.402C53.7631 145.78 46.7209 147.887 42.3392 149.731C39.6766 150.852 38.2865 152.298 35.1371 152.37C32.2704 152.436 28.8293 151.067 26.1868 151.278C23.9674 151.456 22.0056 153.371 19.5812 153.407C16.6677 153.45 10.3191 149.199 8.0247 147.236C3.72045 143.551 1.95578 137.202 -2.02285 132.974C-3.4724 131.433 -4.83552 131.532 -5.76798 130.717C-6.6002 129.989 -6.25086 128.814 -6.51376 127.861C-6.82138 126.745 -8.19471 123.892 -8.19531 123.223C-8.19621 122.097 -7.1296 121.162 -6.74365 120.156C-5.36313 116.559 -4.45498 111.236 -5.67885 107.519C-6.00057 106.541 -7.02666 105.696 -7.21484 104.853C-8.04766 101.123 -5.41324 96.9897 -3.61886 93.8694C-2.28845 91.5561 2.51219 83.5791 4.1187 82.0995C4.84558 81.4303 7.38635 80.7616 8.60212 79.9804C10.1903 78.9594 13.446 75.5228 13.6411 73.6672C13.7125 72.9895 13.202 72.0565 13.193 71.3044C13.1666 69.1012 15.1101 64.6481 17.168 63.6367C18.0185 63.2187 18.8928 63.2322 19.7028 62.8703C23.0178 61.3886 23.8981 55.5406 24.8374 55.0865C25.7579 54.6417 29.9529 56.6465 31.376 56.9586C37.2391 58.2437 37.2829 55.7014 41.733 53.6888C45.1789 52.1303 51.2058 50.9311 54.9834 50.733C58.8077 50.5325 62.0217 51.3371 66.018 50.6634C69.0759 50.1478 70.7214 48.2268 73.1019 51.2471C74.5677 53.1066 75.0806 55.3269 74.1097 57.5543C73.3585 59.2779 69.5909 61.599 72.8519 63.2013C76.6874 65.0857 81.1003 63.9993 84.3259 65.5326C86.7757 66.697 87.0741 69.7624 89.7928 70.8698C90.4215 71.1258 91.1535 71.0565 91.7339 71.3296C93.7639 72.2852 97.3359 75.2203 99.5492 73.0907C101.47 71.242 99.0613 67.306 102.956 65.6922C106.521 64.2148 107.83 65.9713 110.672 67.0974C112.2 67.7027 113.747 68.2588 115.314 68.7576C118.568 69.7933 126.064 72.296 129.088 72.0166C132.448 71.7062 136.345 69.4638 139.694 70.7873C142.021 71.7068 144.106 74.804 143.999 77.3109C143.891 79.8403 140.866 83.0314 141.408 85.2603C144.032 90.7995 148.76 95.9819 150.147 102.05C150.818 104.988 150.425 107.651 152.384 110.318C153.206 111.438 154.704 112.297 155.447 113.557C156.6 115.515 156.634 118.525 157.829 120.479C158.835 122.126 161.308 123.139 162.786 124.376H162.787Z" fill="black"/>
</mask>
<g mask="url(#mask0_107_105)">
<path d="M154.107 314.3L-80.2945 169.489L-76.9778 164.12L157.423 308.932L154.107 314.3ZM161.688 302.03L-72.7127 157.218L-69.3955 151.849L165.006 296.66L161.688 302.03ZM169.266 289.756L-65.1338 144.945L-61.8171 139.576L172.583 284.387L169.266 289.756ZM176.849 277.484L-57.5518 132.672L-54.2351 127.304L180.166 272.115L176.849 277.484ZM184.431 265.214L-49.9701 120.402L-46.6534 115.033L187.748 259.845L184.431 265.214ZM192.014 252.943L-42.387 108.131L-39.0703 102.763L195.331 247.574L192.014 252.943ZM199.595 240.67L-34.8059 95.8581L-31.4891 90.4895L202.912 235.301L199.595 240.67ZM207.177 228.398L-27.2244 83.5863L-23.9077 78.2177L210.493 223.029L207.177 228.398ZM214.755 216.126L-19.6465 71.3146L-16.3293 65.9452L218.072 210.757L214.755 216.126ZM222.337 203.855L-12.0643 59.0434L-8.74753 53.6747L225.654 198.486L222.337 203.855ZM229.92 191.583L-4.48147 46.7713L-1.16475 41.4026L233.236 186.214L229.92 191.583ZM237.501 179.312L3.10028 34.5008L6.41751 29.1313L240.818 173.942L237.501 179.312ZM245.084 167.039L10.6827 22.2274L14 16.8579L248.401 161.669L245.084 167.039ZM252.663 154.768L18.2615 9.95621L21.5782 4.58756L255.979 149.399L252.663 154.768ZM260.245 142.495L25.8434 -2.31641L29.1602 -7.68506L263.561 137.126L260.245 142.495Z" fill="white"/>
</g>
<path fill-rule="evenodd" clip-rule="evenodd" d="M66.0186 50.6647C69.0761 50.1489 70.7222 48.2284 73.1025 51.2486C74.5678 53.108 75.0801 55.3281 74.1094 57.5553C73.3579 59.2788 69.5917 61.5995 72.8525 63.2018C76.6878 65.0859 81.1006 63.9997 84.3262 65.5328C86.7758 66.6973 87.0744 69.7633 89.793 70.8707C90.4215 71.1266 91.1531 71.0578 91.7334 71.3307C93.6999 72.2564 97.1142 75.0398 99.3379 73.277L99.5488 73.0914C101.41 71.3005 99.2077 67.551 102.608 65.8512L102.955 65.694C106.52 64.2165 107.83 65.9722 110.672 67.0983C112.2 67.7036 113.747 68.2596 115.314 68.7584C118.467 69.7618 125.6 72.141 128.792 72.0348L129.088 72.0172C132.447 71.7069 136.344 69.4656 139.693 70.7887C142.02 71.7082 144.106 74.8044 143.999 77.3111L143.98 77.5514C143.705 80.0401 140.883 83.1022 141.408 85.2613C144.032 90.8004 148.76 95.9832 150.147 102.051C150.819 104.989 150.425 107.653 152.384 110.319C153.206 111.438 154.704 112.298 155.446 113.558C156.599 115.516 156.635 118.526 157.829 120.48C158.835 122.126 161.308 123.141 162.786 124.378L163.113 124.658C164.826 126.175 167.707 129.294 168.554 131.063C169.433 132.9 168.989 134.719 171.295 135.525C174.307 136.577 179.058 135.619 182.55 134.753L183.962 134.393C185.087 134.101 191.687 131.768 192 132.077L191.928 132.728C191.108 139.463 187.797 146.251 183.841 151.679L183.526 152.103C176.885 160.934 167.775 164.385 161.271 173.226L160.941 173.687C159.146 176.267 155.239 182.786 155.875 185.132C156.21 186.366 157.368 186.317 157.502 187.155C157.63 187.954 156.912 189.116 156.864 190.146C156.79 191.761 157.615 194.375 158.556 195.682C159.063 196.387 160.304 197.082 160.503 197.41L160.542 197.489C160.929 198.373 160.434 201.506 160.475 202.766C160.611 206.975 162.41 210.478 159.41 214.282L159.234 214.496C157.416 216.646 155.206 216.956 152.894 218.269L152.385 218.571C149.628 220.272 143.782 224.768 143.991 227.629C144.058 228.532 144.818 230.013 145.033 231.112C145.683 234.434 146.905 239.078 143.481 241.27C142.219 242.078 138.703 242.848 138.01 243.9C137.205 245.123 138.106 245.589 138.262 246.588C138.687 249.306 136.709 253.017 135.226 255.223C131.269 261.11 125.159 269.385 118.248 271.859L117.935 271.965C114.719 273.008 112.018 272.239 108.753 272.567L108.529 272.594C106.228 272.918 101.906 274.77 100.195 274.642L100.033 274.624C98.5704 274.371 95.4616 270.286 95.1846 268.93C95.0569 268.305 95.6333 267.576 95.6846 266.686C95.8598 263.649 93.8317 262.516 92.5273 260.255L92.4033 260.034C91.4673 258.291 91.0012 256.021 90.1895 254.339L90.0225 254.011C88.5963 251.365 87.4529 250.322 86.4727 247.285L86.2793 246.65C85.0266 242.314 85.297 236.099 83.8545 232.458L83.709 232.113C79.8009 223.399 73.8671 219.536 78.1104 208.612C79.3255 205.484 82.102 203.474 82.4531 200.049C83.3932 190.871 76.1579 181.554 70.9209 174.394L69.9033 172.992C67.1009 169.087 69.0373 168.211 70.0664 164.255C71.2509 159.699 72.1155 153.637 65.7627 153.123C63.6148 152.949 60.9018 154.345 59.2812 153.605C57.9902 153.016 57.824 151.446 57.0771 150.404C53.7624 145.782 46.7205 147.888 42.3389 149.732C39.6767 150.853 38.2865 152.299 35.1377 152.372C32.2711 152.438 28.829 151.068 26.1865 151.28C23.9674 151.458 22.0052 153.373 19.5811 153.409L19.2988 153.4C16.4706 153.202 11.0121 149.646 8.5 147.63L8.02441 147.237C3.72019 143.553 1.95612 137.203 -2.02246 132.974C-3.47181 131.434 -4.83515 131.533 -5.76758 130.717C-6.54746 130.035 -6.29057 128.96 -6.47168 128.044L-6.51367 127.862C-6.82127 126.746 -8.19428 123.893 -8.19531 123.224C-8.196 122.098 -7.12913 121.162 -6.74316 120.157C-5.36277 116.56 -4.45516 111.238 -5.67871 107.52C-6.00037 106.543 -7.02639 105.697 -7.21484 104.854C-7.9436 101.59 -6.01729 98.0171 -4.32227 95.0846L-3.61914 93.8707C-2.28878 91.5575 2.51146 83.5802 4.11816 82.1002C4.7996 81.4728 7.0758 80.8462 8.35938 80.1266L8.60254 79.9811C10.1907 78.9598 13.445 75.5241 13.6406 73.6686C13.7076 73.0332 13.2633 72.1726 13.2002 71.4479L13.1924 71.3053C13.166 69.1022 15.1101 64.6488 17.168 63.6373C18.0184 63.2194 18.8932 63.2326 19.7031 62.8707C23.0173 61.389 23.8978 55.5433 24.8369 55.0875C25.7573 54.6428 29.9526 56.6473 31.376 56.9596C37.0554 58.2044 37.2747 55.858 41.3281 53.8805L41.7324 53.69C44.9629 52.229 50.4627 51.0835 54.25 50.7828L54.9834 50.734C58.688 50.5399 61.8203 51.2887 65.6455 50.7233L66.0186 50.6647ZM66.7129 56.943C64.1718 57.3335 61.9418 57.2737 60.1113 57.1793C58.0663 57.0738 56.7989 56.959 55.3145 57.0367C52.2832 57.1957 47.5163 58.1589 44.8398 59.2252L44.333 59.44C43.6991 59.7268 43.2098 60.0332 42.6621 60.4137C42.2861 60.675 41.1714 61.5074 40.1631 62.0709C38.878 62.789 37.3546 63.3669 35.4648 63.5543C33.6898 63.7303 31.8836 63.5312 30.0244 63.1236H30.0234C29.5268 63.0147 29.0632 62.8685 28.7373 62.7604C28.5718 62.7054 28.4042 62.648 28.2393 62.5895C27.8632 63.3094 27.4062 64.0859 26.8496 64.8404C25.8912 66.1395 24.4271 67.6719 22.2783 68.6324L22.2773 68.6334C21.6784 68.901 21.1349 69.0693 20.7217 69.1803C20.5963 69.214 20.4698 69.243 20.3525 69.2711C20.2654 69.4164 20.1684 69.5907 20.0693 69.7936C19.8556 70.2312 19.69 70.6749 19.5869 71.0377C19.6502 71.2669 19.7318 71.5766 19.7969 71.9098C19.8938 72.4066 20.0283 73.2829 19.918 74.3297C19.7243 76.1676 18.9208 77.6803 18.415 78.5279C17.8248 79.5172 17.118 80.4421 16.4502 81.2272C15.1993 82.6975 13.5288 84.3163 12.0146 85.2897L12.0137 85.2906C11.2802 85.7619 10.5257 86.1096 10.0088 86.3346C9.46951 86.5692 8.89392 86.7948 8.50586 86.9488C8.36759 87.0037 8.24798 87.0524 8.14453 87.0943C8.00714 87.2765 7.82064 87.5279 7.58398 87.8649C6.96701 88.7433 6.23348 89.8611 5.47461 91.0563C3.95883 93.4435 2.47366 95.9363 1.85254 97.0162C0.829809 98.7947 0.0102596 100.137 -0.567382 101.539C-0.816194 102.142 -0.951459 102.608 -1.01562 102.954C-0.910267 103.106 -0.794467 103.276 -0.683593 103.453C-0.426668 103.862 -0.0837984 104.462 0.198242 105.213L0.31543 105.546L0.492188 106.118C1.31755 108.989 1.3193 112.013 1.03809 114.573C0.730385 117.373 0.0262079 120.131 -0.851562 122.419C-1.02037 122.858 -1.21336 123.249 -1.38965 123.574C-1.27221 123.86 -1.14576 124.164 -1.03711 124.439C-0.866963 124.869 -0.607838 125.541 -0.430664 126.183C-0.414091 126.243 -0.398685 126.304 -0.383789 126.363C0.428892 126.807 1.35503 127.43 2.28223 128.351L2.57324 128.65C5.19078 131.432 7.02731 134.856 8.35449 137.171C9.86968 139.815 10.9116 141.401 12.1279 142.442C12.9423 143.139 14.7825 144.478 16.7451 145.621C17.7114 146.183 18.5726 146.617 19.2461 146.891C19.3645 146.939 19.4659 146.978 19.5508 147.008C19.7058 146.944 19.9378 146.845 20.2666 146.69C20.692 146.489 21.4876 146.102 22.2969 145.791C23.1538 145.461 24.3135 145.099 25.6826 144.989L26.124 144.962C28.3371 144.863 30.5429 145.329 31.8076 145.581C33.5804 145.933 34.4014 146.075 34.9922 146.061C35.4676 146.05 35.7249 145.976 36.2119 145.745C36.5808 145.569 36.897 145.393 37.5723 145.034C38.1785 144.712 38.9622 144.307 39.8906 143.916L40.8428 143.526C43.1891 142.598 46.3833 141.564 49.6934 141.345C53.5396 141.092 58.766 141.928 62.207 146.726C62.2985 146.854 62.3832 146.981 62.4639 147.106C62.6623 147.068 62.8632 147.032 63.0557 147.001C63.8548 146.87 65.0007 146.73 66.2715 146.833C68.873 147.043 71.4328 147.891 73.4951 149.74C75.5533 151.585 76.5216 153.895 76.9297 155.935C77.672 159.646 76.7642 163.572 76.1738 165.842C75.8083 167.248 75.3645 168.36 75.0645 169.103C75.0409 169.161 75.0194 169.216 74.999 169.266C75.0093 169.281 75.0195 169.296 75.0303 169.311L75.9922 170.635C78.3626 173.871 81.5452 178.099 84.0225 182.496C86.7742 187.38 89.2704 193.473 88.7881 200.054L88.7314 200.693C88.3899 204.025 86.8509 206.466 85.8398 207.967C84.6314 209.762 84.2682 210.189 83.9932 210.897C82.4518 214.865 82.8779 216.863 83.6689 218.74C84.1925 219.982 84.9294 221.242 86.0215 223.088C87.0526 224.832 88.3286 226.989 89.4688 229.531C90.7586 232.407 91.1327 235.984 91.3877 238.378C91.6981 241.291 91.8891 243.33 92.3418 244.897C92.6888 246.098 93.0167 246.747 93.3965 247.389C93.6491 247.817 93.8764 248.162 94.2861 248.815C94.6629 249.416 95.1039 250.139 95.5771 251.017C96.3459 252.443 96.8626 254.053 97.166 254.958C97.5533 256.112 97.7613 256.671 97.9639 257.048C98.0399 257.19 98.167 257.387 98.4688 257.775C98.6621 258.024 99.3068 258.814 99.7617 259.462C100.945 261.147 102.107 263.494 102 266.734L101.985 267.049C101.969 267.341 101.937 267.617 101.897 267.872C102.02 267.835 102.148 267.798 102.281 267.756C103.036 267.524 104.038 267.205 104.931 266.953C105.777 266.713 106.959 266.406 108.122 266.289L108.525 266.253C110.551 266.091 112.642 266.217 113.569 266.226C114.786 266.238 115.461 266.153 116.121 265.917C118.167 265.184 120.592 263.362 123.216 260.531C125.763 257.783 128.062 254.568 129.988 251.703C130.57 250.837 131.197 249.747 131.612 248.723C131.776 248.319 131.879 247.988 131.94 247.738C131.91 247.662 131.879 247.581 131.849 247.497C131.552 246.687 131.248 245.469 131.417 243.983C131.582 242.533 132.138 241.341 132.738 240.429C133.37 239.47 134.116 238.835 134.613 238.463C135.139 238.07 135.655 237.774 136.063 237.561C136.862 237.145 137.702 236.816 138.3 236.59C138.862 236.378 139.158 236.27 139.471 236.154C139.456 235.809 139.409 235.369 139.317 234.805C139.189 234.017 139.042 233.351 138.853 232.385C138.846 232.364 138.832 232.314 138.804 232.229C138.735 232.025 138.66 231.823 138.525 231.454C138.413 231.144 138.245 230.68 138.102 230.197C137.986 229.807 137.813 229.171 137.728 228.42L137.697 228.091C137.479 225.114 138.894 222.722 139.756 221.479C140.76 220.031 142.022 218.729 143.172 217.675C145.466 215.572 148.132 213.715 149.775 212.782H149.776C150.657 212.282 151.48 211.907 152.119 211.627C152.845 211.308 153.19 211.167 153.596 210.97C154.186 210.684 154.32 210.545 154.455 210.374C154.698 210.065 154.749 209.896 154.769 209.823C154.797 209.716 154.84 209.489 154.815 208.984C154.787 208.408 154.697 207.788 154.541 206.706C154.401 205.732 154.214 204.411 154.167 202.971L154.163 202.405C154.166 202.226 154.171 202.06 154.178 201.916C154.191 201.613 154.211 201.306 154.231 201.031C154.25 200.778 154.264 200.566 154.279 200.37C154.012 200.094 153.715 199.76 153.433 199.368C152.423 197.964 151.73 196.284 151.3 194.89C150.875 193.513 150.477 191.675 150.561 189.855L150.582 189.525C150.602 189.288 150.631 189.062 150.664 188.851C150.295 188.236 149.991 187.549 149.784 186.786V186.785C149.085 184.205 149.837 181.696 150.214 180.548C150.711 179.037 151.422 177.497 152.115 176.154C153.501 173.468 155.195 170.834 156.187 169.486C160.077 164.198 164.738 160.606 168.643 157.547C172.679 154.386 175.993 151.733 178.74 147.963C180.291 145.834 181.68 143.535 182.809 141.178C181.481 141.485 179.988 141.792 178.472 142.003C176.048 142.34 172.642 142.588 169.516 141.585L169.214 141.483C167.848 141.006 166.534 140.244 165.438 139.088C164.361 137.952 163.791 136.745 163.463 135.847C163.191 135.104 162.974 134.211 162.932 134.051C162.89 133.897 162.864 133.812 162.852 133.773C162.809 133.705 162.689 133.516 162.449 133.196C162.129 132.767 161.71 132.259 161.232 131.721C160.367 130.748 159.499 129.89 158.951 129.403L158.736 129.217C158.356 128.899 158.117 128.817 156.65 127.847C155.683 127.208 153.74 125.892 152.443 123.77C151.238 121.797 150.738 119.531 150.49 118.512C150.327 117.841 150.225 117.431 150.114 117.076C150.087 116.989 150.06 116.922 150.041 116.87C149.971 116.803 149.873 116.71 149.728 116.58C149.527 116.399 149.099 116.024 148.728 115.667C148.331 115.285 147.802 114.741 147.298 114.055H147.297C145.527 111.645 144.884 109.257 144.56 107.336C144.415 106.477 144.313 105.555 144.242 104.991C144.16 104.337 144.09 103.874 143.995 103.458C143.544 101.485 142.486 99.4071 140.86 96.7555C139.416 94.3994 137.211 91.1409 135.705 87.9625L135.428 87.3795L135.275 86.7525C134.746 84.5756 135.191 82.6581 135.56 81.5074C135.937 80.3312 136.478 79.2459 136.824 78.5582C137.187 77.8387 137.401 77.425 137.568 77.0533C137.548 77.0193 137.526 76.9829 137.502 76.9459C137.432 76.8404 137.359 76.7534 137.297 76.6852C137.085 76.6942 136.648 76.7398 135.864 76.9274C135.003 77.1336 134.48 77.3025 133.291 77.6139C132.319 77.8685 131.04 78.1747 129.669 78.3014C128.034 78.4524 126.309 78.2174 125.003 77.983C123.574 77.7265 122.057 77.3568 120.637 76.9723C119.223 76.5893 117.8 76.1628 116.538 75.7701L113.4 74.7721C111.685 74.2262 110.001 73.6203 108.348 72.9654L107.864 72.7662C107.395 72.5643 106.968 72.3589 106.604 72.1764C106.594 72.2445 106.586 72.3139 106.575 72.3834C106.362 73.7083 105.794 75.8405 103.925 77.6393C99.9286 81.4841 95.0867 79.9935 93.167 79.2018C92.0464 78.7396 91.0359 78.1702 90.3564 77.7799C89.9506 77.5467 89.6796 77.3906 89.4863 77.2799C89.3475 77.2573 89.186 77.2291 89.0225 77.1959C88.6204 77.1142 88.05 76.9747 87.4131 76.7154H87.4121C84.125 75.3764 82.451 72.8081 81.7549 71.7936C81.5372 71.4763 81.3807 71.2601 81.2764 71.1188C80.8611 71.0192 80.0892 70.9298 78.3252 70.7916C76.466 70.6459 73.4023 70.4203 70.3633 69.0065L70.0693 68.8668C68.4232 68.058 66.0209 66.3453 65.3779 63.1188C64.7966 60.1999 66.087 57.9304 66.6377 57.0572C66.6619 57.0188 66.688 56.9813 66.7129 56.943Z" fill="white"/>
<path d="M34.0664 122.61H21.4443V105.481H34.0664V122.61ZM89.0635 122.61H76.4414V105.481H89.0635V122.61ZM54.8037 118.102H42.1816V100.973H54.8037V118.102ZM10.6309 90.1343V110.89L-9.20312 98.2886V77.5327L10.6309 90.1343ZM78.2441 99.1694H65.623V82.0396H78.2441V99.1694ZM46.6904 50.4858V88.0024L9.72656 65.0122V27.4966L46.6904 50.4858Z" fill="#13171B"/>
<path d="M-5.14116 29.2271L25.5117 48.2328L2.52205 73.9292L-19.1152 61.2344L-5.14116 29.2271Z" fill="#13171B"/>
<path d="M46.0499 70.5985L42.2592 76.7344L-39.0417 26.5073L-35.251 20.3713L46.0499 70.5985Z" fill="white"/>
<path d="M47.5977 69.1797V82.9424L37.6807 76.8711V63.1084L47.5977 69.1797ZM-12.8066 31.5918V45.9795L-22.7236 39.6318V25.2441L-12.8066 31.5918ZM-32.6416 13.5234V44.1758L-54.2793 30.6523V0L-32.6416 13.5234Z" fill="#13171B"/>
<path d="M-51.5713 36.0618L1.16958 64.9115L-16.4107 100.974L-51.5713 78.9465V36.0618Z" fill="#13171B"/>
<path d="M186.438 309.233L111.609 263.705V237.56L183.733 281.736L186.438 309.233Z" fill="#13171B"/>
<path d="M125.132 261.605V253.128L166.604 278.749V287.227L125.132 261.605ZM175.619 292.796V284.318L184.634 289.888V298.365L175.619 292.796Z" fill="white"/>
</g>
</svg>
