<svg width="42" height="42" viewBox="0 0 42 42" fill="none" xmlns="http://www.w3.org/2000/svg">
<path d="M39.2 21C39.2 23.3901 38.7292 25.7568 37.8147 27.9648C36.8999 30.173 35.5595 32.1794 33.8695 33.8695C32.1794 35.5595 30.173 36.8999 27.9648 37.8147C25.7568 38.7292 23.3901 39.2 21 39.2C18.61 39.2 16.2433 38.7292 14.0352 37.8147C11.8271 36.8999 9.82074 35.5595 8.1307 33.8695C6.44069 32.1794 5.10007 30.173 4.18543 27.9648C3.27081 25.7568 2.80005 23.3901 2.80005 21C2.80005 18.61 3.27081 16.2433 4.18545 14.0352C5.10007 11.8271 6.44069 9.82074 8.1307 8.1307C9.82074 6.44069 11.8271 5.10007 14.0352 4.18543C16.2433 3.27081 18.61 2.80005 21 2.80005C23.3901 2.80005 25.7568 3.27081 27.9648 4.18545C30.173 5.10007 32.1794 6.44069 33.8695 8.1307C35.5595 9.82074 36.8999 11.8271 37.8147 14.0352C38.7292 16.2433 39.2 18.61 39.2 21Z" stroke="#0030CF" stroke-width="2"/>
<path d="M28.28 21C28.28 23.3901 28.0916 25.7568 27.7258 27.9648C27.36 30.173 26.8238 32.1794 26.1477 33.8695C25.4717 35.5595 24.6691 36.8999 23.7858 37.8147C22.9026 38.7292 21.956 39.2 21 39.2C20.0439 39.2 19.0973 38.7292 18.2141 37.8147C17.3308 36.8999 16.5282 35.5595 15.8522 33.8695C15.1762 32.1794 14.64 30.173 14.2741 27.9648C13.9083 25.7568 13.72 23.3901 13.72 21C13.72 18.61 13.9083 16.2433 14.2741 14.0352C14.64 11.8271 15.1762 9.82074 15.8522 8.1307C16.5282 6.44069 17.3308 5.10007 18.2141 4.18543C19.0973 3.27081 20.0439 2.80005 21 2.80005C21.956 2.80005 22.9026 3.27081 23.7858 4.18545C24.6691 5.10007 25.4717 6.44069 26.1477 8.1307C26.8238 9.82074 27.36 11.8271 27.7258 14.0352C28.0916 16.2433 28.28 18.61 28.28 21Z" stroke="#0030CF" stroke-width="2"/>
<path d="M2.80005 21H39.2" stroke="#0030CF" stroke-width="2" stroke-linecap="round"/>
</svg>
