<svg width="42" height="42" viewBox="0 0 42 42" fill="none" xmlns="http://www.w3.org/2000/svg">
<path d="M35.7581 18.2H31.2036C28.081 18.2 25.5496 20.5504 25.5496 23.45C25.5496 26.3495 28.081 28.7 31.2036 28.7H35.7581C35.9041 28.7 35.9769 28.7 36.0385 28.6963C36.9823 28.6387 37.7339 27.9408 37.7959 27.0644C37.7999 27.0072 37.7999 26.9395 37.7999 26.8042V20.0957C37.7999 19.9605 37.7999 19.8927 37.7959 19.8355C37.7339 18.9591 36.9823 18.2612 36.0385 18.2036C35.9769 18.2 35.9041 18.2 35.7581 18.2Z" stroke="#0030CF" stroke-width="2"/>
<path d="M35.9895 18.2C35.8536 14.9234 35.4148 12.9145 34.0004 11.5002C31.9503 9.44995 28.6502 9.44995 22.0504 9.44995H16.8002C10.2004 9.44995 6.90044 9.44995 4.85011 11.5002C2.7998 13.5505 2.7998 16.8504 2.7998 23.45C2.7998 30.0496 2.7998 33.3496 4.85011 35.3997C6.90044 37.45 10.2004 37.45 16.8002 37.45H22.0504C28.6502 37.45 31.9503 37.45 34.0004 35.3997C35.4148 33.9855 35.8536 31.9765 35.9895 28.7" stroke="#0030CF" stroke-width="2"/>
<path d="M9.79956 9.44997L16.3369 5.11543C18.1778 3.89479 20.6719 3.89479 22.5128 5.11543L29.0501 9.44997" stroke="#0030CF" stroke-width="2" stroke-linecap="round"/>
<path d="M30.7861 23.45H30.8034" stroke="#0030CF" stroke-width="2" stroke-linecap="round" stroke-linejoin="round"/>
</svg>
