<svg width="42" height="42" viewBox="0 0 42 42" fill="none" xmlns="http://www.w3.org/2000/svg">
<path d="M28.3943 35.28L10.9202 4.20001M37.8002 32.76C37.8002 35.5436 35.5437 37.8 32.7602 37.8C29.9766 37.8 27.7202 35.5436 27.7202 32.76C27.7202 29.9764 29.9766 27.72 32.7602 27.72C35.5437 27.72 37.8002 29.9764 37.8002 32.76Z" stroke="#0030CF" stroke-width="2" stroke-linecap="round"/>
<path d="M13.6057 35.28L31.0799 4.20001M4.19995 32.76C4.19995 35.5436 6.45644 37.8 9.23995 37.8C12.0235 37.8 14.2799 35.5436 14.2799 32.76C14.2799 29.9764 12.0235 27.72 9.23995 27.72C6.45644 27.72 4.19995 29.9764 4.19995 32.76Z" stroke="#0030CF" stroke-width="2" stroke-linecap="round"/>
</svg>
