<svg width="42" height="42" viewBox="0 0 42 42" fill="none" xmlns="http://www.w3.org/2000/svg">
<path d="M14.7 9.44996C14.7 12.3495 12.3494 14.7 9.44996 14.7C6.55047 14.7 4.19995 12.3495 4.19995 9.44996C4.19995 6.55047 6.55047 4.19995 9.44996 4.19995C12.3494 4.19995 14.7 6.55047 14.7 9.44996Z" stroke="#0030CF" stroke-width="2"/>
<path d="M39.2002 9.44996C39.2002 12.3495 36.8498 14.7 33.9502 14.7C31.0506 14.7 28.7002 12.3495 28.7002 9.44996C28.7002 6.55047 31.0506 4.19995 33.9502 4.19995C36.8498 4.19995 39.2002 6.55047 39.2002 9.44996Z" stroke="#0030CF" stroke-width="1.6"/>
<path d="M14.7 33.95C14.7 36.8495 12.3494 39.2 9.44996 39.2C6.55047 39.2 4.19995 36.8495 4.19995 33.95C4.19995 31.0504 6.55047 28.7 9.44996 28.7C12.3494 28.7 14.7 31.0504 14.7 33.95Z" stroke="#0030CF" stroke-width="1.6"/>
<path d="M39.2002 33.95C39.2002 36.8495 36.8498 39.2 33.9502 39.2C31.0506 39.2 28.7002 36.8495 28.7002 33.95C28.7002 31.0504 31.0506 28.7 33.9502 28.7C36.8498 28.7 39.2002 31.0504 39.2002 33.95Z" stroke="#0030CF" stroke-width="1.6"/>
<path d="M14.6997 33.95H28.6997" stroke="#0030CF" stroke-width="1.6" stroke-linecap="round"/>
<path d="M14.6997 9.44995H28.6997" stroke="#0030CF" stroke-width="1.6" stroke-linecap="round"/>
<path d="M33.9495 28.7V14.7" stroke="#0030CF" stroke-width="1.6" stroke-linecap="round"/>
<path d="M9.45044 28.7V14.7" stroke="#0030CF" stroke-width="1.6" stroke-linecap="round"/>
</svg>
