<svg width="42" height="42" viewBox="0 0 42 42" fill="none" xmlns="http://www.w3.org/2000/svg">
<path d="M39.2 21C39.2 23.39 38.7292 25.7567 37.8147 27.9648C36.8999 30.173 35.5595 32.1793 33.8695 33.8694C32.1794 35.5594 30.173 36.8999 27.9648 37.8146C25.7568 38.7292 23.3901 39.2 21 39.2C18.61 39.2 16.2433 38.7292 14.0352 37.8146C11.8271 36.8999 9.82074 35.5594 8.1307 33.8694C6.44069 32.1793 5.10007 30.173 4.18543 27.9648C3.27081 25.7567 2.80005 23.39 2.80005 21C2.80005 18.61 3.27081 16.2433 4.18545 14.0351C5.10007 11.827 6.44069 9.82067 8.1307 8.13064C9.82074 6.44062 11.8271 5.10001 14.0352 4.18537C16.2433 3.27075 18.61 2.79999 21 2.79999C23.3901 2.79999 25.7568 3.27075 27.9648 4.18539C30.173 5.10001 32.1794 6.44062 33.8695 8.13064C35.5595 9.82067 36.8999 11.827 37.8147 14.0352C38.7292 16.2433 39.2 18.61 39.2 21Z" stroke="#0030CF" stroke-width="2"/>
<path d="M28.28 21C28.28 23.39 28.0916 25.7567 27.7258 27.9648C27.36 30.173 26.8238 32.1793 26.1477 33.8694C25.4717 35.5594 24.6691 36.8999 23.7858 37.8146C22.9026 38.7292 21.956 39.2 21 39.2C20.0439 39.2 19.0973 38.7292 18.2141 37.8146C17.3308 36.8999 16.5282 35.5594 15.8522 33.8694C15.1762 32.1793 14.64 30.173 14.2741 27.9648C13.9083 25.7567 13.72 23.39 13.72 21C13.72 18.61 13.9083 16.2433 14.2741 14.0351C14.64 11.827 15.1762 9.82067 15.8522 8.13064C16.5282 6.44062 17.3308 5.10001 18.2141 4.18537C19.0973 3.27075 20.0439 2.79999 21 2.79999C21.956 2.79999 22.9026 3.27075 23.7858 4.18539C24.6691 5.10001 25.4717 6.44062 26.1477 8.13064C26.8238 9.82067 27.36 11.827 27.7258 14.0352C28.0916 16.2433 28.28 18.61 28.28 21Z" stroke="#0030CF" stroke-width="2"/>
<path d="M2.80005 21H39.2" stroke="#0030CF" stroke-width="2" stroke-linecap="round"/>
</svg>
