<svg width="42" height="42" viewBox="0 0 42 42" fill="none" xmlns="http://www.w3.org/2000/svg">
<path d="M4.19995 21.7C4.19995 13.4504 4.19995 9.32564 6.76277 6.76283C9.32558 4.20001 13.4504 4.20001 21.6999 4.20001C29.9494 4.20001 34.0744 4.20001 36.6371 6.76283C39.1999 9.32564 39.1999 13.4504 39.1999 21.7C39.1999 29.9495 39.1999 34.0744 36.6371 36.6371C34.0744 39.2 29.9494 39.2 21.6999 39.2C13.4504 39.2 9.32558 39.2 6.76277 36.6371C4.19995 34.0744 4.19995 29.9495 4.19995 21.7Z" stroke="#0030CF" stroke-width="2"/>
<path d="M4.19995 23.4501H9.73041C11.3145 23.4501 12.1065 23.4501 12.8027 23.7703C13.4989 24.0904 14.0143 24.6919 15.0452 25.8945L16.1047 27.1307C17.1356 28.3333 17.651 28.9347 18.3473 29.2548C19.0434 29.5751 19.8355 29.5751 21.4194 29.5751H21.9805C23.5644 29.5751 24.3564 29.5751 25.0526 29.2548C25.7489 28.9347 26.2643 28.3333 27.2952 27.1307L28.3547 25.8945C29.3856 24.6919 29.901 24.0904 30.5973 23.7703C31.2934 23.4501 32.0855 23.4501 33.6694 23.4501H39.1999" stroke="#0030CF" stroke-width="2" stroke-linecap="round"/>
</svg>
